<?xml version="1.0" encoding="UTF-8" standalone="no"?>
<!DOCTYPE svg PUBLIC "-//W3C//DTD SVG 1.1//EN"
 "http://www.w3.org/Graphics/SVG/1.1/DTD/svg11.dtd">
<!-- Generated by graphviz version 12.2.1 (20241206.2353)
 -->
<!-- Title: G Pages: 1 -->
<svg width="2191pt" height="716pt"
 viewBox="0.00 0.00 2191.20 715.95" xmlns="http://www.w3.org/2000/svg" xmlns:xlink="http://www.w3.org/1999/xlink">
<g id="graph0" class="graph" transform="scale(1 1) rotate(0) translate(21.6 694.35)">
<title>G</title>
<polygon fill="#111111" stroke="none" points="-21.6,21.6 -21.6,-694.35 2169.6,-694.35 2169.6,21.6 -21.6,21.6"/>
<!-- app/app.component.ts -->
<g id="node1" class="node">
<title>app/app.component.ts</title>
<path fill="none" stroke="#c6c5fe" d="M604.58,-231.75C604.58,-231.75 470.17,-231.75 470.17,-231.75 466.21,-231.75 462.25,-227.79 462.25,-223.83 462.25,-223.83 462.25,-215.92 462.25,-215.92 462.25,-211.96 466.21,-208 470.17,-208 470.17,-208 604.58,-208 604.58,-208 608.54,-208 612.5,-211.96 612.5,-215.92 612.5,-215.92 612.5,-223.83 612.5,-223.83 612.5,-227.79 608.54,-231.75 604.58,-231.75"/>
<text text-anchor="middle" x="537.38" y="-214.45" font-family="Arial" font-size="14.00" fill="#c6c5fe">app/app.component.ts</text>
</g>
<!-- app/book&#45;list/book&#45;list.component.ts -->
<g id="node2" class="node">
<title>app/book&#45;list/book&#45;list.component.ts</title>
<path fill="none" stroke="#c6c5fe" d="M1030.83,-273.75C1030.83,-273.75 814.67,-273.75 814.67,-273.75 810.71,-273.75 806.75,-269.79 806.75,-265.83 806.75,-265.83 806.75,-257.92 806.75,-257.92 806.75,-253.96 810.71,-250 814.67,-250 814.67,-250 1030.83,-250 1030.83,-250 1034.79,-250 1038.75,-253.96 1038.75,-257.92 1038.75,-257.92 1038.75,-265.83 1038.75,-265.83 1038.75,-269.79 1034.79,-273.75 1030.83,-273.75"/>
<text text-anchor="middle" x="922.75" y="-256.45" font-family="Arial" font-size="14.00" fill="#c6c5fe">app/book&#45;list/book&#45;list.component.ts</text>
</g>
<!-- app/app.component.ts&#45;&gt;app/book&#45;list/book&#45;list.component.ts -->
<g id="edge1" class="edge">
<title>app/app.component.ts&#45;&gt;app/book&#45;list/book&#45;list.component.ts</title>
<path fill="none" stroke="#757575" d="M612.75,-228.02C665.23,-233.77 736.76,-241.61 797.79,-248.29"/>
<polygon fill="#757575" stroke="#757575" points="797.23,-251.75 807.55,-249.36 797.99,-244.8 797.23,-251.75"/>
</g>
<!-- app/book&#45;list/book&#45;list.service.ts -->
<g id="node8" class="node">
<title>app/book&#45;list/book&#45;list.service.ts</title>
<path fill="none" stroke="#c6c5fe" d="M1326.21,-353.75C1326.21,-353.75 1134.79,-353.75 1134.79,-353.75 1130.83,-353.75 1126.88,-349.79 1126.88,-345.83 1126.88,-345.83 1126.88,-337.92 1126.88,-337.92 1126.88,-333.96 1130.83,-330 1134.79,-330 1134.79,-330 1326.21,-330 1326.21,-330 1330.17,-330 1334.12,-333.96 1334.12,-337.92 1334.12,-337.92 1334.12,-345.83 1334.12,-345.83 1334.12,-349.79 1330.17,-353.75 1326.21,-353.75"/>
<text text-anchor="middle" x="1230.5" y="-336.45" font-family="Arial" font-size="14.00" fill="#c6c5fe">app/book&#45;list/book&#45;list.service.ts</text>
</g>
<!-- app/book&#45;list/book&#45;list.component.ts&#45;&gt;app/book&#45;list/book&#45;list.service.ts -->
<g id="edge5" class="edge">
<title>app/book&#45;list/book&#45;list.component.ts&#45;&gt;app/book&#45;list/book&#45;list.service.ts</title>
<path fill="none" stroke="#757575" d="M953.34,-274.22C983.44,-286.36 1031.64,-304.64 1074.75,-315.88 1092,-320.37 1110.53,-324.27 1128.58,-327.57"/>
<polygon fill="#757575" stroke="#757575" points="1127.78,-330.99 1138.24,-329.29 1129.01,-324.1 1127.78,-330.99"/>
</g>
<!-- app/book&#45;list/booklist.model.ts -->
<g id="node9" class="node">
<title>app/book&#45;list/booklist.model.ts</title>
<path fill="none" stroke="#cfffac" d="M1737.46,-313.75C1737.46,-313.75 1555.79,-313.75 1555.79,-313.75 1551.83,-313.75 1547.88,-309.79 1547.88,-305.83 1547.88,-305.83 1547.88,-297.92 1547.88,-297.92 1547.88,-293.96 1551.83,-290 1555.79,-290 1555.79,-290 1737.46,-290 1737.46,-290 1741.42,-290 1745.38,-293.96 1745.38,-297.92 1745.38,-297.92 1745.38,-305.83 1745.38,-305.83 1745.38,-309.79 1741.42,-313.75 1737.46,-313.75"/>
<text text-anchor="middle" x="1646.62" y="-296.45" font-family="Arial" font-size="14.00" fill="#cfffac">app/book&#45;list/booklist.model.ts</text>
</g>
<!-- app/book&#45;list/book&#45;list.component.ts&#45;&gt;app/book&#45;list/booklist.model.ts -->
<g id="edge6" class="edge">
<title>app/book&#45;list/book&#45;list.component.ts&#45;&gt;app/book&#45;list/booklist.model.ts</title>
<path fill="none" stroke="#757575" d="M1001.17,-274.23C1024.74,-277.56 1050.75,-280.81 1074.75,-282.88 1234.91,-296.64 1421.13,-300.59 1536.2,-301.64"/>
<polygon fill="#757575" stroke="#757575" points="1535.91,-305.13 1545.94,-301.72 1535.97,-298.13 1535.91,-305.13"/>
</g>
<!-- app/book&#45;list/books.actions.ts -->
<g id="node10" class="node">
<title>app/book&#45;list/books.actions.ts</title>
<path fill="none" stroke="#c6c5fe" d="M1319.08,-395.75C1319.08,-395.75 1141.92,-395.75 1141.92,-395.75 1137.96,-395.75 1134,-391.79 1134,-387.83 1134,-387.83 1134,-379.92 1134,-379.92 1134,-375.96 1137.96,-372 1141.92,-372 1141.92,-372 1319.08,-372 1319.08,-372 1323.04,-372 1327,-375.96 1327,-379.92 1327,-379.92 1327,-387.83 1327,-387.83 1327,-391.79 1323.04,-395.75 1319.08,-395.75"/>
<text text-anchor="middle" x="1230.5" y="-378.45" font-family="Arial" font-size="14.00" fill="#c6c5fe">app/book&#45;list/books.actions.ts</text>
</g>
<!-- app/book&#45;list/book&#45;list.component.ts&#45;&gt;app/book&#45;list/books.actions.ts -->
<g id="edge7" class="edge">
<title>app/book&#45;list/book&#45;list.component.ts&#45;&gt;app/book&#45;list/books.actions.ts</title>
<path fill="none" stroke="#757575" d="M937.12,-273.97C962.09,-295.81 1018.42,-341.53 1074.75,-362.88 1089.79,-368.57 1106.16,-372.76 1122.45,-375.83"/>
<polygon fill="#757575" stroke="#757575" points="1121.75,-379.26 1132.21,-377.52 1122.95,-372.36 1121.75,-379.26"/>
</g>
<!-- app/book&#45;list/books.selector.ts -->
<g id="node11" class="node">
<title>app/book&#45;list/books.selector.ts</title>
<path fill="none" stroke="#c6c5fe" d="M1320.96,-273.75C1320.96,-273.75 1140.04,-273.75 1140.04,-273.75 1136.08,-273.75 1132.12,-269.79 1132.12,-265.83 1132.12,-265.83 1132.12,-257.92 1132.12,-257.92 1132.12,-253.96 1136.08,-250 1140.04,-250 1140.04,-250 1320.96,-250 1320.96,-250 1324.92,-250 1328.88,-253.96 1328.88,-257.92 1328.88,-257.92 1328.88,-265.83 1328.88,-265.83 1328.88,-269.79 1324.92,-273.75 1320.96,-273.75"/>
<text text-anchor="middle" x="1230.5" y="-256.45" font-family="Arial" font-size="14.00" fill="#c6c5fe">app/book&#45;list/books.selector.ts</text>
</g>
<!-- app/book&#45;list/book&#45;list.component.ts&#45;&gt;app/book&#45;list/books.selector.ts -->
<g id="edge8" class="edge">
<title>app/book&#45;list/book&#45;list.component.ts&#45;&gt;app/book&#45;list/books.selector.ts</title>
<path fill="none" stroke="#757575" d="M1038.91,-261.88C1065.71,-261.88 1094.18,-261.88 1120.7,-261.88"/>
<polygon fill="#757575" stroke="#757575" points="1120.43,-265.38 1130.43,-261.88 1120.43,-258.38 1120.43,-265.38"/>
</g>
<!-- app/book&#45;list/collections/collections.component.ts -->
<g id="node12" class="node">
<title>app/book&#45;list/collections/collections.component.ts</title>
<path fill="none" stroke="#c6c5fe" d="M1378.33,-231.75C1378.33,-231.75 1082.67,-231.75 1082.67,-231.75 1078.71,-231.75 1074.75,-227.79 1074.75,-223.83 1074.75,-223.83 1074.75,-215.92 1074.75,-215.92 1074.75,-211.96 1078.71,-208 1082.67,-208 1082.67,-208 1378.33,-208 1378.33,-208 1382.29,-208 1386.25,-211.96 1386.25,-215.92 1386.25,-215.92 1386.25,-223.83 1386.25,-223.83 1386.25,-227.79 1382.29,-231.75 1378.33,-231.75"/>
<text text-anchor="middle" x="1230.5" y="-214.45" font-family="Arial" font-size="14.00" fill="#c6c5fe">app/book&#45;list/collections/collections.component.ts</text>
</g>
<!-- app/book&#45;list/book&#45;list.component.ts&#45;&gt;app/book&#45;list/collections/collections.component.ts -->
<g id="edge9" class="edge">
<title>app/book&#45;list/book&#45;list.component.ts&#45;&gt;app/book&#45;list/collections/collections.component.ts</title>
<path fill="none" stroke="#757575" d="M1012.37,-249.5C1032.85,-246.65 1054.56,-243.65 1074.75,-240.88 1091.61,-238.56 1109.5,-236.12 1126.9,-233.75"/>
<polygon fill="#757575" stroke="#757575" points="1127.32,-237.23 1136.75,-232.41 1126.37,-230.29 1127.32,-237.23"/>
</g>
<!-- app/book&#45;list/list/list.component.ts -->
<g id="node13" class="node">
<title>app/book&#45;list/list/list.component.ts</title>
<path fill="none" stroke="#c6c5fe" d="M1331.83,-189.75C1331.83,-189.75 1129.17,-189.75 1129.17,-189.75 1125.21,-189.75 1121.25,-185.79 1121.25,-181.83 1121.25,-181.83 1121.25,-173.92 1121.25,-173.92 1121.25,-169.96 1125.21,-166 1129.17,-166 1129.17,-166 1331.83,-166 1331.83,-166 1335.79,-166 1339.75,-169.96 1339.75,-173.92 1339.75,-173.92 1339.75,-181.83 1339.75,-181.83 1339.75,-185.79 1335.79,-189.75 1331.83,-189.75"/>
<text text-anchor="middle" x="1230.5" y="-172.45" font-family="Arial" font-size="14.00" fill="#c6c5fe">app/book&#45;list/list/list.component.ts</text>
</g>
<!-- app/book&#45;list/book&#45;list.component.ts&#45;&gt;app/book&#45;list/list/list.component.ts -->
<g id="edge10" class="edge">
<title>app/book&#45;list/book&#45;list.component.ts&#45;&gt;app/book&#45;list/list/list.component.ts</title>
<path fill="none" stroke="#757575" d="M947.65,-249.61C976.85,-235.16 1028.15,-211.53 1074.75,-198.88 1086.07,-195.8 1097.98,-193.17 1109.96,-190.91"/>
<polygon fill="#757575" stroke="#757575" points="1110.25,-194.42 1119.48,-189.21 1109.02,-187.53 1110.25,-194.42"/>
</g>
<!-- app/app.config.ts -->
<g id="node3" class="node">
<title>app/app.config.ts</title>
<path fill="none" stroke="#c6c5fe" d="M588.83,-168.75C588.83,-168.75 485.92,-168.75 485.92,-168.75 481.96,-168.75 478,-164.79 478,-160.83 478,-160.83 478,-152.92 478,-152.92 478,-148.96 481.96,-145 485.92,-145 485.92,-145 588.83,-145 588.83,-145 592.79,-145 596.75,-148.96 596.75,-152.92 596.75,-152.92 596.75,-160.83 596.75,-160.83 596.75,-164.79 592.79,-168.75 588.83,-168.75"/>
<text text-anchor="middle" x="537.38" y="-151.45" font-family="Arial" font-size="14.00" fill="#c6c5fe">app/app.config.ts</text>
</g>
<!-- app/app.routes.ts -->
<g id="node4" class="node">
<title>app/app.routes.ts</title>
<path fill="none" stroke="#c6c5fe" d="M974.96,-168.75C974.96,-168.75 870.54,-168.75 870.54,-168.75 866.58,-168.75 862.62,-164.79 862.62,-160.83 862.62,-160.83 862.62,-152.92 862.62,-152.92 862.62,-148.96 866.58,-145 870.54,-145 870.54,-145 974.96,-145 974.96,-145 978.92,-145 982.88,-148.96 982.88,-152.92 982.88,-152.92 982.88,-160.83 982.88,-160.83 982.88,-164.79 978.92,-168.75 974.96,-168.75"/>
<text text-anchor="middle" x="922.75" y="-151.45" font-family="Arial" font-size="14.00" fill="#c6c5fe">app/app.routes.ts</text>
</g>
<!-- app/app.config.ts&#45;&gt;app/app.routes.ts -->
<g id="edge2" class="edge">
<title>app/app.config.ts&#45;&gt;app/app.routes.ts</title>
<path fill="none" stroke="#757575" d="M597.02,-156.88C665.21,-156.88 777.73,-156.88 850.79,-156.88"/>
<polygon fill="#757575" stroke="#757575" points="850.65,-160.38 860.65,-156.88 850.65,-153.38 850.65,-160.38"/>
</g>
<!-- app/base/core/core.provider.ts -->
<g id="node5" class="node">
<title>app/base/core/core.provider.ts</title>
<path fill="none" stroke="#cfffac" d="M1013.58,-126.75C1013.58,-126.75 831.92,-126.75 831.92,-126.75 827.96,-126.75 824,-122.79 824,-118.83 824,-118.83 824,-110.92 824,-110.92 824,-106.96 827.96,-103 831.92,-103 831.92,-103 1013.58,-103 1013.58,-103 1017.54,-103 1021.5,-106.96 1021.5,-110.92 1021.5,-110.92 1021.5,-118.83 1021.5,-118.83 1021.5,-122.79 1017.54,-126.75 1013.58,-126.75"/>
<text text-anchor="middle" x="922.75" y="-109.45" font-family="Arial" font-size="14.00" fill="#cfffac">app/base/core/core.provider.ts</text>
</g>
<!-- app/app.config.ts&#45;&gt;app/base/core/core.provider.ts -->
<g id="edge3" class="edge">
<title>app/app.config.ts&#45;&gt;app/base/core/core.provider.ts</title>
<path fill="none" stroke="#757575" d="M597.02,-150.45C654.16,-144.19 742.43,-134.52 812.52,-126.84"/>
<polygon fill="#757575" stroke="#757575" points="812.55,-130.36 822.11,-125.79 811.78,-123.4 812.55,-130.36"/>
</g>
<!-- app/pages/home/home.module.ts -->
<g id="node6" class="node">
<title>app/pages/home/home.module.ts</title>
<path fill="none" stroke="#c6c5fe" d="M1331.83,-147.75C1331.83,-147.75 1129.17,-147.75 1129.17,-147.75 1125.21,-147.75 1121.25,-143.79 1121.25,-139.83 1121.25,-139.83 1121.25,-131.92 1121.25,-131.92 1121.25,-127.96 1125.21,-124 1129.17,-124 1129.17,-124 1331.83,-124 1331.83,-124 1335.79,-124 1339.75,-127.96 1339.75,-131.92 1339.75,-131.92 1339.75,-139.83 1339.75,-139.83 1339.75,-143.79 1335.79,-147.75 1331.83,-147.75"/>
<text text-anchor="middle" x="1230.5" y="-130.45" font-family="Arial" font-size="14.00" fill="#c6c5fe">app/pages/home/home.module.ts</text>
</g>
<!-- app/app.routes.ts&#45;&gt;app/pages/home/home.module.ts -->
<g id="edge4" class="edge">
<title>app/app.routes.ts&#45;&gt;app/pages/home/home.module.ts</title>
<path fill="none" stroke="#757575" d="M983.06,-152.8C1019.01,-150.33 1066.17,-147.09 1109.6,-144.11"/>
<polygon fill="#757575" stroke="#757575" points="1109.6,-147.62 1119.33,-143.44 1109.12,-140.64 1109.6,-147.62"/>
</g>
<!-- app/pages/home/contact/contact.component.ts -->
<g id="node16" class="node">
<title>app/pages/home/contact/contact.component.ts</title>
<path fill="none" stroke="#cfffac" d="M1787.33,-271.75C1787.33,-271.75 1505.92,-271.75 1505.92,-271.75 1501.96,-271.75 1498,-267.79 1498,-263.83 1498,-263.83 1498,-255.92 1498,-255.92 1498,-251.96 1501.96,-248 1505.92,-248 1505.92,-248 1787.33,-248 1787.33,-248 1791.29,-248 1795.25,-251.96 1795.25,-255.92 1795.25,-255.92 1795.25,-263.83 1795.25,-263.83 1795.25,-267.79 1791.29,-271.75 1787.33,-271.75"/>
<text text-anchor="middle" x="1646.62" y="-254.45" font-family="Arial" font-size="14.00" fill="#cfffac">app/pages/home/contact/contact.component.ts</text>
</g>
<!-- app/pages/home/home.module.ts&#45;&gt;app/pages/home/contact/contact.component.ts -->
<g id="edge19" class="edge">
<title>app/pages/home/home.module.ts&#45;&gt;app/pages/home/contact/contact.component.ts</title>
<path fill="none" stroke="#757575" d="M1339.89,-136.25C1356.57,-140.2 1372.72,-146.67 1386.25,-156.88 1418.03,-180.84 1389.98,-215.57 1422.25,-238.88 1441.2,-252.56 1463.53,-260.98 1486.63,-265.86"/>
<polygon fill="#757575" stroke="#757575" points="1485.69,-269.24 1496.16,-267.63 1486.97,-262.36 1485.69,-269.24"/>
</g>
<!-- app/pages/home/course/course.component.ts -->
<g id="node17" class="node">
<title>app/pages/home/course/course.component.ts</title>
<path fill="none" stroke="#cfffac" d="M1784.33,-229.75C1784.33,-229.75 1508.92,-229.75 1508.92,-229.75 1504.96,-229.75 1501,-225.79 1501,-221.83 1501,-221.83 1501,-213.92 1501,-213.92 1501,-209.96 1504.96,-206 1508.92,-206 1508.92,-206 1784.33,-206 1784.33,-206 1788.29,-206 1792.25,-209.96 1792.25,-213.92 1792.25,-213.92 1792.25,-221.83 1792.25,-221.83 1792.25,-225.79 1788.29,-229.75 1784.33,-229.75"/>
<text text-anchor="middle" x="1646.62" y="-212.45" font-family="Arial" font-size="14.00" fill="#cfffac">app/pages/home/course/course.component.ts</text>
</g>
<!-- app/pages/home/home.module.ts&#45;&gt;app/pages/home/course/course.component.ts -->
<g id="edge20" class="edge">
<title>app/pages/home/home.module.ts&#45;&gt;app/pages/home/course/course.component.ts</title>
<path fill="none" stroke="#757575" d="M1339.85,-140.67C1356,-144.16 1371.99,-149.33 1386.25,-156.88 1407.39,-168.06 1400.88,-186.13 1422.25,-196.88 1442.98,-207.3 1466.16,-214.01 1489.52,-218.17"/>
<polygon fill="#757575" stroke="#757575" points="1488.7,-221.58 1499.13,-219.71 1489.81,-214.67 1488.7,-221.58"/>
</g>
<!-- app/pages/home/general&#45;introduction/general&#45;introduction.component.ts -->
<g id="node18" class="node">
<title>app/pages/home/general&#45;introduction/general&#45;introduction.component.ts</title>
<path fill="none" stroke="#cfffac" d="M1863.08,-187.75C1863.08,-187.75 1430.17,-187.75 1430.17,-187.75 1426.21,-187.75 1422.25,-183.79 1422.25,-179.83 1422.25,-179.83 1422.25,-171.92 1422.25,-171.92 1422.25,-167.96 1426.21,-164 1430.17,-164 1430.17,-164 1863.08,-164 1863.08,-164 1867.04,-164 1871,-167.96 1871,-171.92 1871,-171.92 1871,-179.83 1871,-179.83 1871,-183.79 1867.04,-187.75 1863.08,-187.75"/>
<text text-anchor="middle" x="1646.62" y="-170.45" font-family="Arial" font-size="14.00" fill="#cfffac">app/pages/home/general&#45;introduction/general&#45;introduction.component.ts</text>
</g>
<!-- app/pages/home/home.module.ts&#45;&gt;app/pages/home/general&#45;introduction/general&#45;introduction.component.ts -->
<g id="edge21" class="edge">
<title>app/pages/home/home.module.ts&#45;&gt;app/pages/home/general&#45;introduction/general&#45;introduction.component.ts</title>
<path fill="none" stroke="#757575" d="M1340.04,-146.36C1390.82,-151.26 1451.92,-157.17 1506.1,-162.4"/>
<polygon fill="#757575" stroke="#757575" points="1505.75,-165.88 1516.04,-163.36 1506.42,-158.91 1505.75,-165.88"/>
</g>
<!-- app/pages/home/home.component.ts -->
<g id="node19" class="node">
<title>app/pages/home/home.component.ts</title>
<path fill="none" stroke="#cfffac" d="M2140.08,-127.75C2140.08,-127.75 1914.92,-127.75 1914.92,-127.75 1910.96,-127.75 1907,-123.79 1907,-119.83 1907,-119.83 1907,-111.92 1907,-111.92 1907,-107.96 1910.96,-104 1914.92,-104 1914.92,-104 2140.08,-104 2140.08,-104 2144.04,-104 2148,-107.96 2148,-111.92 2148,-111.92 2148,-119.83 2148,-119.83 2148,-123.79 2144.04,-127.75 2140.08,-127.75"/>
<text text-anchor="middle" x="2027.5" y="-110.45" font-family="Arial" font-size="14.00" fill="#cfffac">app/pages/home/home.component.ts</text>
</g>
<!-- app/pages/home/home.module.ts&#45;&gt;app/pages/home/home.component.ts -->
<g id="edge22" class="edge">
<title>app/pages/home/home.module.ts&#45;&gt;app/pages/home/home.component.ts</title>
<path fill="none" stroke="#757575" d="M1339.96,-133.15C1484.53,-129.51 1740.13,-123.08 1895.35,-119.17"/>
<polygon fill="#757575" stroke="#757575" points="1895.39,-122.67 1905.3,-118.92 1895.22,-115.68 1895.39,-122.67"/>
</g>
<!-- app/pages/home/home.routing.module.ts -->
<g id="node20" class="node">
<title>app/pages/home/home.routing.module.ts</title>
<path fill="none" stroke="#c6c5fe" d="M1770.46,-107.75C1770.46,-107.75 1522.79,-107.75 1522.79,-107.75 1518.83,-107.75 1514.88,-103.79 1514.88,-99.83 1514.88,-99.83 1514.88,-91.92 1514.88,-91.92 1514.88,-87.96 1518.83,-84 1522.79,-84 1522.79,-84 1770.46,-84 1770.46,-84 1774.42,-84 1778.38,-87.96 1778.38,-91.92 1778.38,-91.92 1778.38,-99.83 1778.38,-99.83 1778.38,-103.79 1774.42,-107.75 1770.46,-107.75"/>
<text text-anchor="middle" x="1646.62" y="-90.45" font-family="Arial" font-size="14.00" fill="#c6c5fe">app/pages/home/home.routing.module.ts</text>
</g>
<!-- app/pages/home/home.module.ts&#45;&gt;app/pages/home/home.routing.module.ts -->
<g id="edge23" class="edge">
<title>app/pages/home/home.module.ts&#45;&gt;app/pages/home/home.routing.module.ts</title>
<path fill="none" stroke="#757575" d="M1340.04,-125.39C1390.82,-120.49 1451.92,-114.58 1506.1,-109.35"/>
<polygon fill="#757575" stroke="#757575" points="1506.42,-112.84 1516.04,-108.39 1505.75,-105.87 1506.42,-112.84"/>
</g>
<!-- app/pages/home/review/review.component.ts -->
<g id="node21" class="node">
<title>app/pages/home/review/review.component.ts</title>
<path fill="none" stroke="#cfffac" d="M1782.46,-65.75C1782.46,-65.75 1510.79,-65.75 1510.79,-65.75 1506.83,-65.75 1502.88,-61.79 1502.88,-57.83 1502.88,-57.83 1502.88,-49.92 1502.88,-49.92 1502.88,-45.96 1506.83,-42 1510.79,-42 1510.79,-42 1782.46,-42 1782.46,-42 1786.42,-42 1790.38,-45.96 1790.38,-49.92 1790.38,-49.92 1790.38,-57.83 1790.38,-57.83 1790.38,-61.79 1786.42,-65.75 1782.46,-65.75"/>
<text text-anchor="middle" x="1646.62" y="-48.45" font-family="Arial" font-size="14.00" fill="#cfffac">app/pages/home/review/review.component.ts</text>
</g>
<!-- app/pages/home/home.module.ts&#45;&gt;app/pages/home/review/review.component.ts -->
<g id="edge24" class="edge">
<title>app/pages/home/home.module.ts&#45;&gt;app/pages/home/review/review.component.ts</title>
<path fill="none" stroke="#757575" d="M1262.67,-123.61C1299.99,-109.46 1364.68,-86.64 1422.25,-74.88 1444.39,-70.35 1467.96,-66.8 1491.18,-64.01"/>
<polygon fill="#757575" stroke="#757575" points="1491.51,-67.49 1501.04,-62.87 1490.71,-60.54 1491.51,-67.49"/>
</g>
<!-- app/patern/footer/footer.component.ts -->
<g id="node22" class="node">
<title>app/patern/footer/footer.component.ts</title>
<path fill="none" stroke="#cfffac" d="M1759.58,-23.75C1759.58,-23.75 1533.67,-23.75 1533.67,-23.75 1529.71,-23.75 1525.75,-19.79 1525.75,-15.83 1525.75,-15.83 1525.75,-7.92 1525.75,-7.92 1525.75,-3.96 1529.71,0 1533.67,0 1533.67,0 1759.58,0 1759.58,0 1763.54,0 1767.5,-3.96 1767.5,-7.92 1767.5,-7.92 1767.5,-15.83 1767.5,-15.83 1767.5,-19.79 1763.54,-23.75 1759.58,-23.75"/>
<text text-anchor="middle" x="1646.62" y="-6.45" font-family="Arial" font-size="14.00" fill="#cfffac">app/patern/footer/footer.component.ts</text>
</g>
<!-- app/pages/home/home.module.ts&#45;&gt;app/patern/footer/footer.component.ts -->
<g id="edge25" class="edge">
<title>app/pages/home/home.module.ts&#45;&gt;app/patern/footer/footer.component.ts</title>
<path fill="none" stroke="#757575" d="M1248.59,-123.54C1280.76,-101.05 1353.28,-53.79 1422.25,-32.88 1451.38,-24.04 1483.54,-18.64 1514.17,-15.41"/>
<polygon fill="#757575" stroke="#757575" points="1514.26,-18.92 1523.87,-14.46 1513.58,-11.95 1514.26,-18.92"/>
</g>
<!-- app/base/utils/test&#45;helper.ts -->
<g id="node7" class="node">
<title>app/base/utils/test&#45;helper.ts</title>
<path fill="none" stroke="#cfffac" d="M216.21,-210.75C216.21,-210.75 51.79,-210.75 51.79,-210.75 47.83,-210.75 43.88,-206.79 43.88,-202.83 43.88,-202.83 43.88,-194.92 43.88,-194.92 43.88,-190.96 47.83,-187 51.79,-187 51.79,-187 216.21,-187 216.21,-187 220.17,-187 224.12,-190.96 224.12,-194.92 224.12,-194.92 224.12,-202.83 224.12,-202.83 224.12,-206.79 220.17,-210.75 216.21,-210.75"/>
<text text-anchor="middle" x="134" y="-193.45" font-family="Arial" font-size="14.00" fill="#cfffac">app/base/utils/test&#45;helper.ts</text>
</g>
<!-- app/book&#45;list/book&#45;list.service.ts&#45;&gt;app/book&#45;list/booklist.model.ts -->
<g id="edge11" class="edge">
<title>app/book&#45;list/book&#45;list.service.ts&#45;&gt;app/book&#45;list/booklist.model.ts</title>
<path fill="none" stroke="#757575" d="M1334.4,-331.94C1395.87,-326 1473.89,-318.46 1536.44,-312.42"/>
<polygon fill="#757575" stroke="#757575" points="1536.41,-315.94 1546.03,-311.5 1535.74,-308.97 1536.41,-315.94"/>
</g>
<!-- app/book&#45;list/books.actions.ts&#45;&gt;app/book&#45;list/booklist.model.ts -->
<g id="edge12" class="edge">
<title>app/book&#45;list/books.actions.ts&#45;&gt;app/book&#45;list/booklist.model.ts</title>
<path fill="none" stroke="#757575" d="M1327.49,-372.31C1346.99,-369.55 1367.32,-366.38 1386.25,-362.88 1456.38,-349.9 1536.13,-330.43 1588.46,-316.99"/>
<polygon fill="#757575" stroke="#757575" points="1589.25,-320.4 1598.06,-314.51 1587.5,-313.62 1589.25,-320.4"/>
</g>
<!-- app/book&#45;list/books.selector.ts&#45;&gt;app/book&#45;list/booklist.model.ts -->
<g id="edge15" class="edge">
<title>app/book&#45;list/books.selector.ts&#45;&gt;app/book&#45;list/booklist.model.ts</title>
<path fill="none" stroke="#757575" d="M1329.02,-271.69C1358.93,-274.68 1391.94,-277.94 1422.25,-280.88 1459.41,-284.47 1500.05,-288.32 1536.36,-291.72"/>
<polygon fill="#757575" stroke="#757575" points="1535.69,-295.18 1545.97,-292.63 1536.34,-288.21 1535.69,-295.18"/>
</g>
<!-- app/book&#45;list/collections/collections.component.ts&#45;&gt;app/book&#45;list/booklist.model.ts -->
<g id="edge17" class="edge">
<title>app/book&#45;list/collections/collections.component.ts&#45;&gt;app/book&#45;list/booklist.model.ts</title>
<path fill="none" stroke="#757575" d="M1366.3,-232.15C1373.2,-234.63 1379.9,-237.52 1386.25,-240.88 1407.39,-252.06 1400.88,-270.13 1422.25,-280.88 1457.01,-298.35 1498.66,-305.39 1536.52,-307.47"/>
<polygon fill="#757575" stroke="#757575" points="1535.96,-310.95 1546.1,-307.88 1536.26,-303.95 1535.96,-310.95"/>
</g>
<!-- app/book&#45;list/list/list.component.ts&#45;&gt;app/book&#45;list/booklist.model.ts -->
<g id="edge18" class="edge">
<title>app/book&#45;list/list/list.component.ts&#45;&gt;app/book&#45;list/booklist.model.ts</title>
<path fill="none" stroke="#757575" d="M1339.89,-178.25C1356.57,-182.2 1372.72,-188.67 1386.25,-198.88 1418.03,-222.84 1389.98,-257.57 1422.25,-280.88 1454.66,-304.28 1496.98,-312.29 1536.05,-313.49"/>
<polygon fill="#757575" stroke="#757575" points="1535.95,-316.99 1546,-313.64 1536.06,-309.99 1535.95,-316.99"/>
</g>
<!-- app/book&#45;list/books.reducer.ts -->
<g id="node14" class="node">
<title>app/book&#45;list/books.reducer.ts</title>
<path fill="none" stroke="#c6c5fe" d="M1012.46,-435.75C1012.46,-435.75 833.04,-435.75 833.04,-435.75 829.08,-435.75 825.12,-431.79 825.12,-427.83 825.12,-427.83 825.12,-419.92 825.12,-419.92 825.12,-415.96 829.08,-412 833.04,-412 833.04,-412 1012.46,-412 1012.46,-412 1016.42,-412 1020.38,-415.96 1020.38,-419.92 1020.38,-419.92 1020.38,-427.83 1020.38,-427.83 1020.38,-431.79 1016.42,-435.75 1012.46,-435.75"/>
<text text-anchor="middle" x="922.75" y="-418.45" font-family="Arial" font-size="14.00" fill="#c6c5fe">app/book&#45;list/books.reducer.ts</text>
</g>
<!-- app/book&#45;list/books.reducer.ts&#45;&gt;app/book&#45;list/booklist.model.ts -->
<g id="edge13" class="edge">
<title>app/book&#45;list/books.reducer.ts&#45;&gt;app/book&#45;list/booklist.model.ts</title>
<path fill="none" stroke="#757575" d="M1020.59,-429.26C1114.99,-432.33 1262.05,-431.29 1386.25,-404.88 1471.06,-386.84 1564.05,-343.68 1612.34,-319.34"/>
<polygon fill="#757575" stroke="#757575" points="1613.84,-322.51 1621.16,-314.85 1610.66,-316.27 1613.84,-322.51"/>
</g>
<!-- app/book&#45;list/books.reducer.ts&#45;&gt;app/book&#45;list/books.actions.ts -->
<g id="edge14" class="edge">
<title>app/book&#45;list/books.reducer.ts&#45;&gt;app/book&#45;list/books.actions.ts</title>
<path fill="none" stroke="#757575" d="M1017.98,-411.55C1051.55,-407.16 1089.56,-402.18 1124.01,-397.68"/>
<polygon fill="#757575" stroke="#757575" points="1124.09,-401.19 1133.55,-396.43 1123.18,-394.25 1124.09,-401.19"/>
</g>
<!-- app/book&#45;list/collection.reducer.ts -->
<g id="node15" class="node">
<title>app/book&#45;list/collection.reducer.ts</title>
<path fill="none" stroke="#c6c5fe" d="M1022.58,-393.75C1022.58,-393.75 822.92,-393.75 822.92,-393.75 818.96,-393.75 815,-389.79 815,-385.83 815,-385.83 815,-377.92 815,-377.92 815,-373.96 818.96,-370 822.92,-370 822.92,-370 1022.58,-370 1022.58,-370 1026.54,-370 1030.5,-373.96 1030.5,-377.92 1030.5,-377.92 1030.5,-385.83 1030.5,-385.83 1030.5,-389.79 1026.54,-393.75 1022.58,-393.75"/>
<text text-anchor="middle" x="922.75" y="-376.45" font-family="Arial" font-size="14.00" fill="#c6c5fe">app/book&#45;list/collection.reducer.ts</text>
</g>
<!-- app/book&#45;list/collection.reducer.ts&#45;&gt;app/book&#45;list/books.actions.ts -->
<g id="edge16" class="edge">
<title>app/book&#45;list/collection.reducer.ts&#45;&gt;app/book&#45;list/books.actions.ts</title>
<path fill="none" stroke="#757575" d="M1030.69,-382.57C1060.39,-382.77 1092.64,-382.98 1122.35,-383.17"/>
<polygon fill="#757575" stroke="#757575" points="1122.06,-386.67 1132.09,-383.24 1122.11,-379.67 1122.06,-386.67"/>
</g>
<!-- app/pages/home/home.routing.module.ts&#45;&gt;app/pages/home/home.component.ts -->
<g id="edge26" class="edge">
<title>app/pages/home/home.routing.module.ts&#45;&gt;app/pages/home/home.component.ts</title>
<path fill="none" stroke="#757575" d="M1778.81,-102.8C1816.56,-104.79 1857.73,-106.97 1895.48,-108.96"/>
<polygon fill="#757575" stroke="#757575" points="1894.86,-112.43 1905.03,-109.46 1895.23,-105.44 1894.86,-112.43"/>
</g>
<!-- app/patern/card/card.component.ts -->
<g id="node23" class="node">
<title>app/patern/card/card.component.ts</title>
<path fill="none" stroke="#cfffac" d="M239.08,-252.75C239.08,-252.75 28.92,-252.75 28.92,-252.75 24.96,-252.75 21,-248.79 21,-244.83 21,-244.83 21,-236.92 21,-236.92 21,-232.96 24.96,-229 28.92,-229 28.92,-229 239.08,-229 239.08,-229 243.04,-229 247,-232.96 247,-236.92 247,-236.92 247,-244.83 247,-244.83 247,-248.79 243.04,-252.75 239.08,-252.75"/>
<text text-anchor="middle" x="134" y="-235.45" font-family="Arial" font-size="14.00" fill="#cfffac">app/patern/card/card.component.ts</text>
</g>
<!-- app/patern/header/desktop&#45;tablet&#45;menu/desktop&#45;tablet&#45;menu.component.ts -->
<g id="node24" class="node">
<title>app/patern/header/desktop&#45;tablet&#45;menu/desktop&#45;tablet&#45;menu.component.ts</title>
<path fill="none" stroke="#cfffac" d="M762.83,-325.75C762.83,-325.75 311.92,-325.75 311.92,-325.75 307.96,-325.75 304,-321.79 304,-317.83 304,-317.83 304,-309.92 304,-309.92 304,-305.96 307.96,-302 311.92,-302 311.92,-302 762.83,-302 762.83,-302 766.79,-302 770.75,-305.96 770.75,-309.92 770.75,-309.92 770.75,-317.83 770.75,-317.83 770.75,-321.79 766.79,-325.75 762.83,-325.75"/>
<text text-anchor="middle" x="537.38" y="-308.45" font-family="Arial" font-size="14.00" fill="#cfffac">app/patern/header/desktop&#45;tablet&#45;menu/desktop&#45;tablet&#45;menu.component.ts</text>
</g>
<!-- app/patern/header/header.component.ts -->
<g id="node25" class="node">
<title>app/patern/header/header.component.ts</title>
<path fill="none" stroke="#c6c5fe" d="M254.46,-294.75C254.46,-294.75 13.54,-294.75 13.54,-294.75 9.58,-294.75 5.62,-290.79 5.62,-286.83 5.62,-286.83 5.62,-278.92 5.62,-278.92 5.62,-274.96 9.58,-271 13.54,-271 13.54,-271 254.46,-271 254.46,-271 258.42,-271 262.38,-274.96 262.38,-278.92 262.38,-278.92 262.38,-286.83 262.38,-286.83 262.38,-290.79 258.42,-294.75 254.46,-294.75"/>
<text text-anchor="middle" x="134" y="-277.45" font-family="Arial" font-size="14.00" fill="#c6c5fe">app/patern/header/header.component.ts</text>
</g>
<!-- app/patern/header/header.component.ts&#45;&gt;app/patern/header/desktop&#45;tablet&#45;menu/desktop&#45;tablet&#45;menu.component.ts -->
<g id="edge27" class="edge">
<title>app/patern/header/header.component.ts&#45;&gt;app/patern/header/desktop&#45;tablet&#45;menu/desktop&#45;tablet&#45;menu.component.ts</title>
<path fill="none" stroke="#757575" d="M262.83,-292.75C295.34,-295.26 330.8,-298 365.09,-300.65"/>
<polygon fill="#757575" stroke="#757575" points="364.43,-304.11 374.67,-301.39 364.97,-297.13 364.43,-304.11"/>
</g>
<!-- app/patern/header/mobile&#45;menu/mobile&#45;menu.component.ts -->
<g id="node26" class="node">
<title>app/patern/header/mobile&#45;menu/mobile&#45;menu.component.ts</title>
<path fill="none" stroke="#cfffac" d="M718.58,-283.75C718.58,-283.75 356.17,-283.75 356.17,-283.75 352.21,-283.75 348.25,-279.79 348.25,-275.83 348.25,-275.83 348.25,-267.92 348.25,-267.92 348.25,-263.96 352.21,-260 356.17,-260 356.17,-260 718.58,-260 718.58,-260 722.54,-260 726.5,-263.96 726.5,-267.92 726.5,-267.92 726.5,-275.83 726.5,-275.83 726.5,-279.79 722.54,-283.75 718.58,-283.75"/>
<text text-anchor="middle" x="537.38" y="-266.45" font-family="Arial" font-size="14.00" fill="#cfffac">app/patern/header/mobile&#45;menu/mobile&#45;menu.component.ts</text>
</g>
<!-- app/patern/header/header.component.ts&#45;&gt;app/patern/header/mobile&#45;menu/mobile&#45;menu.component.ts -->
<g id="edge28" class="edge">
<title>app/patern/header/header.component.ts&#45;&gt;app/patern/header/mobile&#45;menu/mobile&#45;menu.component.ts</title>
<path fill="none" stroke="#757575" d="M262.83,-279.37C286.31,-278.73 311.33,-278.04 336.34,-277.36"/>
<polygon fill="#757575" stroke="#757575" points="336.41,-280.86 346.31,-277.08 336.22,-273.86 336.41,-280.86"/>
</g>
<!-- app/shared/services/home.service.ts -->
<g id="node27" class="node">
<title>app/shared/services/home.service.ts</title>
<path fill="none" stroke="#cfffac" d="M243.96,-336.75C243.96,-336.75 24.04,-336.75 24.04,-336.75 20.08,-336.75 16.12,-332.79 16.12,-328.83 16.12,-328.83 16.12,-320.92 16.12,-320.92 16.12,-316.96 20.08,-313 24.04,-313 24.04,-313 243.96,-313 243.96,-313 247.92,-313 251.88,-316.96 251.88,-320.92 251.88,-320.92 251.88,-328.83 251.88,-328.83 251.88,-332.79 247.92,-336.75 243.96,-336.75"/>
<text text-anchor="middle" x="134" y="-319.45" font-family="Arial" font-size="14.00" fill="#cfffac">app/shared/services/home.service.ts</text>
</g>
<!-- app/shared/ui/avatar/avatar.component.ts -->
<g id="node28" class="node">
<title>app/shared/ui/avatar/avatar.component.ts</title>
<path fill="none" stroke="#cfffac" d="M258.58,-378.75C258.58,-378.75 9.42,-378.75 9.42,-378.75 5.46,-378.75 1.5,-374.79 1.5,-370.83 1.5,-370.83 1.5,-362.92 1.5,-362.92 1.5,-358.96 5.46,-355 9.42,-355 9.42,-355 258.58,-355 258.58,-355 262.54,-355 266.5,-358.96 266.5,-362.92 266.5,-362.92 266.5,-370.83 266.5,-370.83 266.5,-374.79 262.54,-378.75 258.58,-378.75"/>
<text text-anchor="middle" x="134" y="-361.45" font-family="Arial" font-size="14.00" fill="#cfffac">app/shared/ui/avatar/avatar.component.ts</text>
</g>
<!-- app/shared/ui/button/button.component.ts -->
<g id="node29" class="node">
<title>app/shared/ui/button/button.component.ts</title>
<path fill="none" stroke="#c6c5fe" d="M258.96,-420.75C258.96,-420.75 9.04,-420.75 9.04,-420.75 5.08,-420.75 1.12,-416.79 1.12,-412.83 1.12,-412.83 1.12,-404.92 1.12,-404.92 1.12,-400.96 5.08,-397 9.04,-397 9.04,-397 258.96,-397 258.96,-397 262.92,-397 266.88,-400.96 266.88,-404.92 266.88,-404.92 266.88,-412.83 266.88,-412.83 266.88,-416.79 262.92,-420.75 258.96,-420.75"/>
<text text-anchor="middle" x="134" y="-403.45" font-family="Arial" font-size="14.00" fill="#c6c5fe">app/shared/ui/button/button.component.ts</text>
</g>
<!-- app/shared/ui/button/button.type.ts -->
<g id="node30" class="node">
<title>app/shared/ui/button/button.type.ts</title>
<path fill="none" stroke="#cfffac" d="M641.33,-420.75C641.33,-420.75 433.42,-420.75 433.42,-420.75 429.46,-420.75 425.5,-416.79 425.5,-412.83 425.5,-412.83 425.5,-404.92 425.5,-404.92 425.5,-400.96 429.46,-397 433.42,-397 433.42,-397 641.33,-397 641.33,-397 645.29,-397 649.25,-400.96 649.25,-404.92 649.25,-404.92 649.25,-412.83 649.25,-412.83 649.25,-416.79 645.29,-420.75 641.33,-420.75"/>
<text text-anchor="middle" x="537.38" y="-403.45" font-family="Arial" font-size="14.00" fill="#cfffac">app/shared/ui/button/button.type.ts</text>
</g>
<!-- app/shared/ui/button/button.component.ts&#45;&gt;app/shared/ui/button/button.type.ts -->
<g id="edge29" class="edge">
<title>app/shared/ui/button/button.component.ts&#45;&gt;app/shared/ui/button/button.type.ts</title>
<path fill="none" stroke="#757575" d="M267.26,-408.88C314.53,-408.88 367.55,-408.88 413.95,-408.88"/>
<polygon fill="#757575" stroke="#757575" points="413.77,-412.38 423.77,-408.88 413.77,-405.38 413.77,-412.38"/>
</g>
<!-- app/shared/ui/icon/icon.component.ts -->
<g id="node31" class="node">
<title>app/shared/ui/icon/icon.component.ts</title>
<path fill="none" stroke="#cfffac" d="M246.21,-483.75C246.21,-483.75 21.79,-483.75 21.79,-483.75 17.83,-483.75 13.88,-479.79 13.88,-475.83 13.88,-475.83 13.88,-467.92 13.88,-467.92 13.88,-463.96 17.83,-460 21.79,-460 21.79,-460 246.21,-460 246.21,-460 250.17,-460 254.12,-463.96 254.12,-467.92 254.12,-467.92 254.12,-475.83 254.12,-475.83 254.12,-479.79 250.17,-483.75 246.21,-483.75"/>
<text text-anchor="middle" x="134" y="-466.45" font-family="Arial" font-size="14.00" fill="#cfffac">app/shared/ui/icon/icon.component.ts</text>
</g>
<!-- app/shared/ui/icon/icons.ts -->
<g id="node32" class="node">
<title>app/shared/ui/icon/icons.ts</title>
<path fill="none" stroke="#c6c5fe" d="M213.96,-546.75C213.96,-546.75 54.04,-546.75 54.04,-546.75 50.08,-546.75 46.12,-542.79 46.12,-538.83 46.12,-538.83 46.12,-530.92 46.12,-530.92 46.12,-526.96 50.08,-523 54.04,-523 54.04,-523 213.96,-523 213.96,-523 217.92,-523 221.88,-526.96 221.88,-530.92 221.88,-530.92 221.88,-538.83 221.88,-538.83 221.88,-542.79 217.92,-546.75 213.96,-546.75"/>
<text text-anchor="middle" x="134" y="-529.45" font-family="Arial" font-size="14.00" fill="#c6c5fe">app/shared/ui/icon/icons.ts</text>
</g>
<!-- app/shared/ui/icon/svg/android&#45;store.ts -->
<g id="node33" class="node">
<title>app/shared/ui/icon/svg/android&#45;store.ts</title>
<path fill="none" stroke="#cfffac" d="M653.71,-630.75C653.71,-630.75 421.04,-630.75 421.04,-630.75 417.08,-630.75 413.12,-626.79 413.12,-622.83 413.12,-622.83 413.12,-614.92 413.12,-614.92 413.12,-610.96 417.08,-607 421.04,-607 421.04,-607 653.71,-607 653.71,-607 657.67,-607 661.62,-610.96 661.62,-614.92 661.62,-614.92 661.62,-622.83 661.62,-622.83 661.62,-626.79 657.67,-630.75 653.71,-630.75"/>
<text text-anchor="middle" x="537.38" y="-613.45" font-family="Arial" font-size="14.00" fill="#cfffac">app/shared/ui/icon/svg/android&#45;store.ts</text>
</g>
<!-- app/shared/ui/icon/icons.ts&#45;&gt;app/shared/ui/icon/svg/android&#45;store.ts -->
<g id="edge30" class="edge">
<title>app/shared/ui/icon/icons.ts&#45;&gt;app/shared/ui/icon/svg/android&#45;store.ts</title>
<path fill="none" stroke="#757575" d="M222.03,-539.6C238,-542.93 254.02,-548.07 268,-555.88 289.46,-567.86 282.15,-586.61 304,-597.88 333.6,-613.14 368.15,-620.76 401.42,-624.08"/>
<polygon fill="#757575" stroke="#757575" points="400.87,-627.55 411.13,-624.92 401.47,-620.58 400.87,-627.55"/>
</g>
<!-- app/shared/ui/icon/svg/app&#45;store.ts -->
<g id="node34" class="node">
<title>app/shared/ui/icon/svg/app&#45;store.ts</title>
<path fill="none" stroke="#cfffac" d="M642.46,-588.75C642.46,-588.75 432.29,-588.75 432.29,-588.75 428.33,-588.75 424.38,-584.79 424.38,-580.83 424.38,-580.83 424.38,-572.92 424.38,-572.92 424.38,-568.96 428.33,-565 432.29,-565 432.29,-565 642.46,-565 642.46,-565 646.42,-565 650.38,-568.96 650.38,-572.92 650.38,-572.92 650.38,-580.83 650.38,-580.83 650.38,-584.79 646.42,-588.75 642.46,-588.75"/>
<text text-anchor="middle" x="537.38" y="-571.45" font-family="Arial" font-size="14.00" fill="#cfffac">app/shared/ui/icon/svg/app&#45;store.ts</text>
</g>
<!-- app/shared/ui/icon/icons.ts&#45;&gt;app/shared/ui/icon/svg/app&#45;store.ts -->
<g id="edge31" class="edge">
<title>app/shared/ui/icon/icons.ts&#45;&gt;app/shared/ui/icon/svg/app&#45;store.ts</title>
<path fill="none" stroke="#757575" d="M222.21,-546.28C248.48,-549.56 277.4,-553.02 304,-555.88 339.25,-559.66 377.56,-563.31 412.72,-566.47"/>
<polygon fill="#757575" stroke="#757575" points="412.24,-569.95 422.51,-567.35 412.86,-562.97 412.24,-569.95"/>
</g>
<!-- app/shared/ui/icon/svg/edit.ts -->
<g id="node35" class="node">
<title>app/shared/ui/icon/svg/edit.ts</title>
<path fill="none" stroke="#cfffac" d="M624.83,-546.75C624.83,-546.75 449.92,-546.75 449.92,-546.75 445.96,-546.75 442,-542.79 442,-538.83 442,-538.83 442,-530.92 442,-530.92 442,-526.96 445.96,-523 449.92,-523 449.92,-523 624.83,-523 624.83,-523 628.79,-523 632.75,-526.96 632.75,-530.92 632.75,-530.92 632.75,-538.83 632.75,-538.83 632.75,-542.79 628.79,-546.75 624.83,-546.75"/>
<text text-anchor="middle" x="537.38" y="-529.45" font-family="Arial" font-size="14.00" fill="#cfffac">app/shared/ui/icon/svg/edit.ts</text>
</g>
<!-- app/shared/ui/icon/icons.ts&#45;&gt;app/shared/ui/icon/svg/edit.ts -->
<g id="edge32" class="edge">
<title>app/shared/ui/icon/icons.ts&#45;&gt;app/shared/ui/icon/svg/edit.ts</title>
<path fill="none" stroke="#757575" d="M222.09,-534.88C283.21,-534.88 365.29,-534.88 430.24,-534.88"/>
<polygon fill="#757575" stroke="#757575" points="430.23,-538.38 440.23,-534.88 430.23,-531.38 430.23,-538.38"/>
</g>
<!-- app/shared/ui/icon/svg/logo.ts -->
<g id="node36" class="node">
<title>app/shared/ui/icon/svg/logo.ts</title>
<path fill="none" stroke="#cfffac" d="M626.71,-504.75C626.71,-504.75 448.04,-504.75 448.04,-504.75 444.08,-504.75 440.12,-500.79 440.12,-496.83 440.12,-496.83 440.12,-488.92 440.12,-488.92 440.12,-484.96 444.08,-481 448.04,-481 448.04,-481 626.71,-481 626.71,-481 630.67,-481 634.62,-484.96 634.62,-488.92 634.62,-488.92 634.62,-496.83 634.62,-496.83 634.62,-500.79 630.67,-504.75 626.71,-504.75"/>
<text text-anchor="middle" x="537.38" y="-487.45" font-family="Arial" font-size="14.00" fill="#cfffac">app/shared/ui/icon/svg/logo.ts</text>
</g>
<!-- app/shared/ui/icon/icons.ts&#45;&gt;app/shared/ui/icon/svg/logo.ts -->
<g id="edge33" class="edge">
<title>app/shared/ui/icon/icons.ts&#45;&gt;app/shared/ui/icon/svg/logo.ts</title>
<path fill="none" stroke="#757575" d="M222.21,-523.47C248.48,-520.19 277.4,-516.73 304,-513.88 344.51,-509.53 389.05,-505.36 428.21,-501.89"/>
<polygon fill="#757575" stroke="#757575" points="428.48,-505.38 438.13,-501.02 427.86,-498.41 428.48,-505.38"/>
</g>
<!-- app/shared/ui/icon/svg/start.ts -->
<g id="node37" class="node">
<title>app/shared/ui/icon/svg/start.ts</title>
<path fill="none" stroke="#cfffac" d="M627.08,-462.75C627.08,-462.75 447.67,-462.75 447.67,-462.75 443.71,-462.75 439.75,-458.79 439.75,-454.83 439.75,-454.83 439.75,-446.92 439.75,-446.92 439.75,-442.96 443.71,-439 447.67,-439 447.67,-439 627.08,-439 627.08,-439 631.04,-439 635,-442.96 635,-446.92 635,-446.92 635,-454.83 635,-454.83 635,-458.79 631.04,-462.75 627.08,-462.75"/>
<text text-anchor="middle" x="537.38" y="-445.45" font-family="Arial" font-size="14.00" fill="#cfffac">app/shared/ui/icon/svg/start.ts</text>
</g>
<!-- app/shared/ui/icon/icons.ts&#45;&gt;app/shared/ui/icon/svg/start.ts -->
<g id="edge34" class="edge">
<title>app/shared/ui/icon/icons.ts&#45;&gt;app/shared/ui/icon/svg/start.ts</title>
<path fill="none" stroke="#757575" d="M183.03,-522.5C208.74,-515.19 240.66,-504.99 268,-492.88 284.94,-485.37 286.35,-477.51 304,-471.88 343.33,-459.32 388.18,-453.43 427.92,-450.89"/>
<polygon fill="#757575" stroke="#757575" points="427.96,-454.39 437.74,-450.33 427.56,-447.41 427.96,-454.39"/>
</g>
<!-- app/shared/ui/icon/svg/close.ts -->
<g id="node38" class="node">
<title>app/shared/ui/icon/svg/close.ts</title>
<path fill="none" stroke="#cfffac" d="M226.33,-588.75C226.33,-588.75 41.67,-588.75 41.67,-588.75 37.71,-588.75 33.75,-584.79 33.75,-580.83 33.75,-580.83 33.75,-572.92 33.75,-572.92 33.75,-568.96 37.71,-565 41.67,-565 41.67,-565 226.33,-565 226.33,-565 230.29,-565 234.25,-568.96 234.25,-572.92 234.25,-572.92 234.25,-580.83 234.25,-580.83 234.25,-584.79 230.29,-588.75 226.33,-588.75"/>
<text text-anchor="middle" x="134" y="-571.45" font-family="Arial" font-size="14.00" fill="#cfffac">app/shared/ui/icon/svg/close.ts</text>
</g>
<!-- app/shared/ui/icon/svg/menu&#45;incollapse.ts -->
<g id="node39" class="node">
<title>app/shared/ui/icon/svg/menu&#45;incollapse.ts</title>
<path fill="none" stroke="#cfffac" d="M260.08,-630.75C260.08,-630.75 7.92,-630.75 7.92,-630.75 3.96,-630.75 0,-626.79 0,-622.83 0,-622.83 0,-614.92 0,-614.92 0,-610.96 3.96,-607 7.92,-607 7.92,-607 260.08,-607 260.08,-607 264.04,-607 268,-610.96 268,-614.92 268,-614.92 268,-622.83 268,-622.83 268,-626.79 264.04,-630.75 260.08,-630.75"/>
<text text-anchor="middle" x="134" y="-613.45" font-family="Arial" font-size="14.00" fill="#cfffac">app/shared/ui/icon/svg/menu&#45;incollapse.ts</text>
</g>
<!-- app/shared/ui/shared.module.ts -->
<g id="node40" class="node">
<title>app/shared/ui/shared.module.ts</title>
<path fill="none" stroke="#cfffac" d="M228.96,-672.75C228.96,-672.75 39.04,-672.75 39.04,-672.75 35.08,-672.75 31.12,-668.79 31.12,-664.83 31.12,-664.83 31.12,-656.92 31.12,-656.92 31.12,-652.96 35.08,-649 39.04,-649 39.04,-649 228.96,-649 228.96,-649 232.92,-649 236.88,-652.96 236.88,-656.92 236.88,-656.92 236.88,-664.83 236.88,-664.83 236.88,-668.79 232.92,-672.75 228.96,-672.75"/>
<text text-anchor="middle" x="134" y="-655.45" font-family="Arial" font-size="14.00" fill="#cfffac">app/shared/ui/shared.module.ts</text>
</g>
<!-- main.ts -->
<g id="node41" class="node">
<title>main.ts</title>
<path fill="none" stroke="#c6c5fe" d="M156.21,-168.75C156.21,-168.75 111.79,-168.75 111.79,-168.75 107.83,-168.75 103.88,-164.79 103.88,-160.83 103.88,-160.83 103.88,-152.92 103.88,-152.92 103.88,-148.96 107.83,-145 111.79,-145 111.79,-145 156.21,-145 156.21,-145 160.17,-145 164.12,-148.96 164.12,-152.92 164.12,-152.92 164.12,-160.83 164.12,-160.83 164.12,-164.79 160.17,-168.75 156.21,-168.75"/>
<text text-anchor="middle" x="134" y="-151.45" font-family="Arial" font-size="14.00" fill="#c6c5fe">main.ts</text>
</g>
<!-- main.ts&#45;&gt;app/app.component.ts -->
<g id="edge35" class="edge">
<title>main.ts&#45;&gt;app/app.component.ts</title>
<path fill="none" stroke="#757575" d="M164.51,-161.51C224.06,-170.85 360.58,-192.28 450.59,-206.41"/>
<polygon fill="#757575" stroke="#757575" points="449.96,-209.85 460.38,-207.95 451.04,-202.94 449.96,-209.85"/>
</g>
<!-- main.ts&#45;&gt;app/app.config.ts -->
<g id="edge36" class="edge">
<title>main.ts&#45;&gt;app/app.config.ts</title>
<path fill="none" stroke="#757575" d="M164.51,-156.88C227.65,-156.88 377.28,-156.88 466.3,-156.88"/>
<polygon fill="#757575" stroke="#757575" points="466.13,-160.38 476.13,-156.88 466.13,-153.38 466.13,-160.38"/>
</g>
</g>
</svg>
