<?xml version="1.0" encoding="UTF-8" standalone="no"?>
<!DOCTYPE svg PUBLIC "-//W3C//DTD SVG 1.1//EN"
 "http://www.w3.org/Graphics/SVG/1.1/DTD/svg11.dtd">
<!-- Generated by graphviz version 12.2.1 (20241206.2353)
 -->
<!-- Title: G Pages: 1 -->
<svg width="2215pt" height="800pt"
 viewBox="0.00 0.00 2215.20 799.95" xmlns="http://www.w3.org/2000/svg" xmlns:xlink="http://www.w3.org/1999/xlink">
<g id="graph0" class="graph" transform="scale(1 1) rotate(0) translate(21.6 778.35)">
<title>G</title>
<polygon fill="#111111" stroke="none" points="-21.6,21.6 -21.6,-778.35 2193.6,-778.35 2193.6,21.6 -21.6,21.6"/>
<!-- app/app.component.ts -->
<g id="node1" class="node">
<title>app/app.component.ts</title>
<path fill="none" stroke="#c6c5fe" d="M604.58,-273.75C604.58,-273.75 470.17,-273.75 470.17,-273.75 466.21,-273.75 462.25,-269.79 462.25,-265.83 462.25,-265.83 462.25,-257.92 462.25,-257.92 462.25,-253.96 466.21,-250 470.17,-250 470.17,-250 604.58,-250 604.58,-250 608.54,-250 612.5,-253.96 612.5,-257.92 612.5,-257.92 612.5,-265.83 612.5,-265.83 612.5,-269.79 608.54,-273.75 604.58,-273.75"/>
<text text-anchor="middle" x="537.38" y="-256.45" font-family="Arial" font-size="14.00" fill="#c6c5fe">app/app.component.ts</text>
</g>
<!-- app/book&#45;list/book&#45;list.component.ts -->
<g id="node2" class="node">
<title>app/book&#45;list/book&#45;list.component.ts</title>
<path fill="none" stroke="#c6c5fe" d="M1030.83,-315.75C1030.83,-315.75 814.67,-315.75 814.67,-315.75 810.71,-315.75 806.75,-311.79 806.75,-307.83 806.75,-307.83 806.75,-299.92 806.75,-299.92 806.75,-295.96 810.71,-292 814.67,-292 814.67,-292 1030.83,-292 1030.83,-292 1034.79,-292 1038.75,-295.96 1038.75,-299.92 1038.75,-299.92 1038.75,-307.83 1038.75,-307.83 1038.75,-311.79 1034.79,-315.75 1030.83,-315.75"/>
<text text-anchor="middle" x="922.75" y="-298.45" font-family="Arial" font-size="14.00" fill="#c6c5fe">app/book&#45;list/book&#45;list.component.ts</text>
</g>
<!-- app/app.component.ts&#45;&gt;app/book&#45;list/book&#45;list.component.ts -->
<g id="edge1" class="edge">
<title>app/app.component.ts&#45;&gt;app/book&#45;list/book&#45;list.component.ts</title>
<path fill="none" stroke="#757575" d="M612.75,-270.02C665.23,-275.77 736.76,-283.61 797.79,-290.29"/>
<polygon fill="#757575" stroke="#757575" points="797.23,-293.75 807.55,-291.36 797.99,-286.8 797.23,-293.75"/>
</g>
<!-- app/book&#45;list/book&#45;list.service.ts -->
<g id="node8" class="node">
<title>app/book&#45;list/book&#45;list.service.ts</title>
<path fill="none" stroke="#c6c5fe" d="M1326.21,-395.75C1326.21,-395.75 1134.79,-395.75 1134.79,-395.75 1130.83,-395.75 1126.88,-391.79 1126.88,-387.83 1126.88,-387.83 1126.88,-379.92 1126.88,-379.92 1126.88,-375.96 1130.83,-372 1134.79,-372 1134.79,-372 1326.21,-372 1326.21,-372 1330.17,-372 1334.12,-375.96 1334.12,-379.92 1334.12,-379.92 1334.12,-387.83 1334.12,-387.83 1334.12,-391.79 1330.17,-395.75 1326.21,-395.75"/>
<text text-anchor="middle" x="1230.5" y="-378.45" font-family="Arial" font-size="14.00" fill="#c6c5fe">app/book&#45;list/book&#45;list.service.ts</text>
</g>
<!-- app/book&#45;list/book&#45;list.component.ts&#45;&gt;app/book&#45;list/book&#45;list.service.ts -->
<g id="edge5" class="edge">
<title>app/book&#45;list/book&#45;list.component.ts&#45;&gt;app/book&#45;list/book&#45;list.service.ts</title>
<path fill="none" stroke="#757575" d="M953.34,-316.22C983.44,-328.36 1031.64,-346.64 1074.75,-357.88 1092,-362.37 1110.53,-366.27 1128.58,-369.57"/>
<polygon fill="#757575" stroke="#757575" points="1127.78,-372.99 1138.24,-371.29 1129.01,-366.1 1127.78,-372.99"/>
</g>
<!-- app/book&#45;list/booklist.model.ts -->
<g id="node9" class="node">
<title>app/book&#45;list/booklist.model.ts</title>
<path fill="none" stroke="#cfffac" d="M1737.46,-355.75C1737.46,-355.75 1555.79,-355.75 1555.79,-355.75 1551.83,-355.75 1547.88,-351.79 1547.88,-347.83 1547.88,-347.83 1547.88,-339.92 1547.88,-339.92 1547.88,-335.96 1551.83,-332 1555.79,-332 1555.79,-332 1737.46,-332 1737.46,-332 1741.42,-332 1745.38,-335.96 1745.38,-339.92 1745.38,-339.92 1745.38,-347.83 1745.38,-347.83 1745.38,-351.79 1741.42,-355.75 1737.46,-355.75"/>
<text text-anchor="middle" x="1646.62" y="-338.45" font-family="Arial" font-size="14.00" fill="#cfffac">app/book&#45;list/booklist.model.ts</text>
</g>
<!-- app/book&#45;list/book&#45;list.component.ts&#45;&gt;app/book&#45;list/booklist.model.ts -->
<g id="edge6" class="edge">
<title>app/book&#45;list/book&#45;list.component.ts&#45;&gt;app/book&#45;list/booklist.model.ts</title>
<path fill="none" stroke="#757575" d="M1001.17,-316.23C1024.74,-319.56 1050.75,-322.81 1074.75,-324.88 1234.91,-338.64 1421.13,-342.59 1536.2,-343.64"/>
<polygon fill="#757575" stroke="#757575" points="1535.91,-347.13 1545.94,-343.72 1535.97,-340.13 1535.91,-347.13"/>
</g>
<!-- app/book&#45;list/books.actions.ts -->
<g id="node10" class="node">
<title>app/book&#45;list/books.actions.ts</title>
<path fill="none" stroke="#c6c5fe" d="M1319.08,-437.75C1319.08,-437.75 1141.92,-437.75 1141.92,-437.75 1137.96,-437.75 1134,-433.79 1134,-429.83 1134,-429.83 1134,-421.92 1134,-421.92 1134,-417.96 1137.96,-414 1141.92,-414 1141.92,-414 1319.08,-414 1319.08,-414 1323.04,-414 1327,-417.96 1327,-421.92 1327,-421.92 1327,-429.83 1327,-429.83 1327,-433.79 1323.04,-437.75 1319.08,-437.75"/>
<text text-anchor="middle" x="1230.5" y="-420.45" font-family="Arial" font-size="14.00" fill="#c6c5fe">app/book&#45;list/books.actions.ts</text>
</g>
<!-- app/book&#45;list/book&#45;list.component.ts&#45;&gt;app/book&#45;list/books.actions.ts -->
<g id="edge7" class="edge">
<title>app/book&#45;list/book&#45;list.component.ts&#45;&gt;app/book&#45;list/books.actions.ts</title>
<path fill="none" stroke="#757575" d="M937.12,-315.97C962.09,-337.81 1018.42,-383.53 1074.75,-404.88 1089.79,-410.57 1106.16,-414.76 1122.45,-417.83"/>
<polygon fill="#757575" stroke="#757575" points="1121.75,-421.26 1132.21,-419.52 1122.95,-414.36 1121.75,-421.26"/>
</g>
<!-- app/book&#45;list/books.selector.ts -->
<g id="node11" class="node">
<title>app/book&#45;list/books.selector.ts</title>
<path fill="none" stroke="#c6c5fe" d="M1320.96,-315.75C1320.96,-315.75 1140.04,-315.75 1140.04,-315.75 1136.08,-315.75 1132.12,-311.79 1132.12,-307.83 1132.12,-307.83 1132.12,-299.92 1132.12,-299.92 1132.12,-295.96 1136.08,-292 1140.04,-292 1140.04,-292 1320.96,-292 1320.96,-292 1324.92,-292 1328.88,-295.96 1328.88,-299.92 1328.88,-299.92 1328.88,-307.83 1328.88,-307.83 1328.88,-311.79 1324.92,-315.75 1320.96,-315.75"/>
<text text-anchor="middle" x="1230.5" y="-298.45" font-family="Arial" font-size="14.00" fill="#c6c5fe">app/book&#45;list/books.selector.ts</text>
</g>
<!-- app/book&#45;list/book&#45;list.component.ts&#45;&gt;app/book&#45;list/books.selector.ts -->
<g id="edge8" class="edge">
<title>app/book&#45;list/book&#45;list.component.ts&#45;&gt;app/book&#45;list/books.selector.ts</title>
<path fill="none" stroke="#757575" d="M1038.91,-303.88C1065.71,-303.88 1094.18,-303.88 1120.7,-303.88"/>
<polygon fill="#757575" stroke="#757575" points="1120.43,-307.38 1130.43,-303.88 1120.43,-300.38 1120.43,-307.38"/>
</g>
<!-- app/book&#45;list/collections/collections.component.ts -->
<g id="node12" class="node">
<title>app/book&#45;list/collections/collections.component.ts</title>
<path fill="none" stroke="#c6c5fe" d="M1378.33,-273.75C1378.33,-273.75 1082.67,-273.75 1082.67,-273.75 1078.71,-273.75 1074.75,-269.79 1074.75,-265.83 1074.75,-265.83 1074.75,-257.92 1074.75,-257.92 1074.75,-253.96 1078.71,-250 1082.67,-250 1082.67,-250 1378.33,-250 1378.33,-250 1382.29,-250 1386.25,-253.96 1386.25,-257.92 1386.25,-257.92 1386.25,-265.83 1386.25,-265.83 1386.25,-269.79 1382.29,-273.75 1378.33,-273.75"/>
<text text-anchor="middle" x="1230.5" y="-256.45" font-family="Arial" font-size="14.00" fill="#c6c5fe">app/book&#45;list/collections/collections.component.ts</text>
</g>
<!-- app/book&#45;list/book&#45;list.component.ts&#45;&gt;app/book&#45;list/collections/collections.component.ts -->
<g id="edge9" class="edge">
<title>app/book&#45;list/book&#45;list.component.ts&#45;&gt;app/book&#45;list/collections/collections.component.ts</title>
<path fill="none" stroke="#757575" d="M1012.37,-291.5C1032.85,-288.65 1054.56,-285.65 1074.75,-282.88 1091.61,-280.56 1109.5,-278.12 1126.9,-275.75"/>
<polygon fill="#757575" stroke="#757575" points="1127.32,-279.23 1136.75,-274.41 1126.37,-272.29 1127.32,-279.23"/>
</g>
<!-- app/book&#45;list/list/list.component.ts -->
<g id="node13" class="node">
<title>app/book&#45;list/list/list.component.ts</title>
<path fill="none" stroke="#c6c5fe" d="M1331.83,-231.75C1331.83,-231.75 1129.17,-231.75 1129.17,-231.75 1125.21,-231.75 1121.25,-227.79 1121.25,-223.83 1121.25,-223.83 1121.25,-215.92 1121.25,-215.92 1121.25,-211.96 1125.21,-208 1129.17,-208 1129.17,-208 1331.83,-208 1331.83,-208 1335.79,-208 1339.75,-211.96 1339.75,-215.92 1339.75,-215.92 1339.75,-223.83 1339.75,-223.83 1339.75,-227.79 1335.79,-231.75 1331.83,-231.75"/>
<text text-anchor="middle" x="1230.5" y="-214.45" font-family="Arial" font-size="14.00" fill="#c6c5fe">app/book&#45;list/list/list.component.ts</text>
</g>
<!-- app/book&#45;list/book&#45;list.component.ts&#45;&gt;app/book&#45;list/list/list.component.ts -->
<g id="edge10" class="edge">
<title>app/book&#45;list/book&#45;list.component.ts&#45;&gt;app/book&#45;list/list/list.component.ts</title>
<path fill="none" stroke="#757575" d="M947.65,-291.61C976.85,-277.16 1028.15,-253.53 1074.75,-240.88 1086.07,-237.8 1097.98,-235.17 1109.96,-232.91"/>
<polygon fill="#757575" stroke="#757575" points="1110.25,-236.42 1119.48,-231.21 1109.02,-229.53 1110.25,-236.42"/>
</g>
<!-- app/app.config.ts -->
<g id="node3" class="node">
<title>app/app.config.ts</title>
<path fill="none" stroke="#c6c5fe" d="M588.83,-231.75C588.83,-231.75 485.92,-231.75 485.92,-231.75 481.96,-231.75 478,-227.79 478,-223.83 478,-223.83 478,-215.92 478,-215.92 478,-211.96 481.96,-208 485.92,-208 485.92,-208 588.83,-208 588.83,-208 592.79,-208 596.75,-211.96 596.75,-215.92 596.75,-215.92 596.75,-223.83 596.75,-223.83 596.75,-227.79 592.79,-231.75 588.83,-231.75"/>
<text text-anchor="middle" x="537.38" y="-214.45" font-family="Arial" font-size="14.00" fill="#c6c5fe">app/app.config.ts</text>
</g>
<!-- app/app.routes.ts -->
<g id="node4" class="node">
<title>app/app.routes.ts</title>
<path fill="none" stroke="#c6c5fe" d="M974.96,-231.75C974.96,-231.75 870.54,-231.75 870.54,-231.75 866.58,-231.75 862.62,-227.79 862.62,-223.83 862.62,-223.83 862.62,-215.92 862.62,-215.92 862.62,-211.96 866.58,-208 870.54,-208 870.54,-208 974.96,-208 974.96,-208 978.92,-208 982.88,-211.96 982.88,-215.92 982.88,-215.92 982.88,-223.83 982.88,-223.83 982.88,-227.79 978.92,-231.75 974.96,-231.75"/>
<text text-anchor="middle" x="922.75" y="-214.45" font-family="Arial" font-size="14.00" fill="#c6c5fe">app/app.routes.ts</text>
</g>
<!-- app/app.config.ts&#45;&gt;app/app.routes.ts -->
<g id="edge2" class="edge">
<title>app/app.config.ts&#45;&gt;app/app.routes.ts</title>
<path fill="none" stroke="#757575" d="M597.02,-219.88C665.21,-219.88 777.73,-219.88 850.79,-219.88"/>
<polygon fill="#757575" stroke="#757575" points="850.65,-223.38 860.65,-219.88 850.65,-216.38 850.65,-223.38"/>
</g>
<!-- app/base/core/core.provider.ts -->
<g id="node5" class="node">
<title>app/base/core/core.provider.ts</title>
<path fill="none" stroke="#cfffac" d="M1013.58,-189.75C1013.58,-189.75 831.92,-189.75 831.92,-189.75 827.96,-189.75 824,-185.79 824,-181.83 824,-181.83 824,-173.92 824,-173.92 824,-169.96 827.96,-166 831.92,-166 831.92,-166 1013.58,-166 1013.58,-166 1017.54,-166 1021.5,-169.96 1021.5,-173.92 1021.5,-173.92 1021.5,-181.83 1021.5,-181.83 1021.5,-185.79 1017.54,-189.75 1013.58,-189.75"/>
<text text-anchor="middle" x="922.75" y="-172.45" font-family="Arial" font-size="14.00" fill="#cfffac">app/base/core/core.provider.ts</text>
</g>
<!-- app/app.config.ts&#45;&gt;app/base/core/core.provider.ts -->
<g id="edge3" class="edge">
<title>app/app.config.ts&#45;&gt;app/base/core/core.provider.ts</title>
<path fill="none" stroke="#757575" d="M597.02,-213.45C654.16,-207.19 742.43,-197.52 812.52,-189.84"/>
<polygon fill="#757575" stroke="#757575" points="812.55,-193.36 822.11,-188.79 811.78,-186.4 812.55,-193.36"/>
</g>
<!-- app/pages/home/home.module.ts -->
<g id="node6" class="node">
<title>app/pages/home/home.module.ts</title>
<path fill="none" stroke="#c6c5fe" d="M1331.83,-189.75C1331.83,-189.75 1129.17,-189.75 1129.17,-189.75 1125.21,-189.75 1121.25,-185.79 1121.25,-181.83 1121.25,-181.83 1121.25,-173.92 1121.25,-173.92 1121.25,-169.96 1125.21,-166 1129.17,-166 1129.17,-166 1331.83,-166 1331.83,-166 1335.79,-166 1339.75,-169.96 1339.75,-173.92 1339.75,-173.92 1339.75,-181.83 1339.75,-181.83 1339.75,-185.79 1335.79,-189.75 1331.83,-189.75"/>
<text text-anchor="middle" x="1230.5" y="-172.45" font-family="Arial" font-size="14.00" fill="#c6c5fe">app/pages/home/home.module.ts</text>
</g>
<!-- app/app.routes.ts&#45;&gt;app/pages/home/home.module.ts -->
<g id="edge4" class="edge">
<title>app/app.routes.ts&#45;&gt;app/pages/home/home.module.ts</title>
<path fill="none" stroke="#757575" d="M983.27,-211.55C1011.06,-207.68 1044.6,-203.02 1074.75,-198.88 1091.61,-196.56 1109.5,-194.12 1126.9,-191.75"/>
<polygon fill="#757575" stroke="#757575" points="1127.32,-195.23 1136.75,-190.41 1126.37,-188.29 1127.32,-195.23"/>
</g>
<!-- app/pages/home/contact/contact.component.ts -->
<g id="node16" class="node">
<title>app/pages/home/contact/contact.component.ts</title>
<path fill="none" stroke="#cfffac" d="M1787.33,-313.75C1787.33,-313.75 1505.92,-313.75 1505.92,-313.75 1501.96,-313.75 1498,-309.79 1498,-305.83 1498,-305.83 1498,-297.92 1498,-297.92 1498,-293.96 1501.96,-290 1505.92,-290 1505.92,-290 1787.33,-290 1787.33,-290 1791.29,-290 1795.25,-293.96 1795.25,-297.92 1795.25,-297.92 1795.25,-305.83 1795.25,-305.83 1795.25,-309.79 1791.29,-313.75 1787.33,-313.75"/>
<text text-anchor="middle" x="1646.62" y="-296.45" font-family="Arial" font-size="14.00" fill="#cfffac">app/pages/home/contact/contact.component.ts</text>
</g>
<!-- app/pages/home/home.module.ts&#45;&gt;app/pages/home/contact/contact.component.ts -->
<g id="edge19" class="edge">
<title>app/pages/home/home.module.ts&#45;&gt;app/pages/home/contact/contact.component.ts</title>
<path fill="none" stroke="#757575" d="M1339.89,-178.25C1356.57,-182.2 1372.72,-188.67 1386.25,-198.88 1418.03,-222.84 1389.98,-257.57 1422.25,-280.88 1441.2,-294.56 1463.53,-302.98 1486.63,-307.86"/>
<polygon fill="#757575" stroke="#757575" points="1485.69,-311.24 1496.16,-309.63 1486.97,-304.36 1485.69,-311.24"/>
</g>
<!-- app/pages/home/course/course.component.ts -->
<g id="node17" class="node">
<title>app/pages/home/course/course.component.ts</title>
<path fill="none" stroke="#cfffac" d="M1784.33,-271.75C1784.33,-271.75 1508.92,-271.75 1508.92,-271.75 1504.96,-271.75 1501,-267.79 1501,-263.83 1501,-263.83 1501,-255.92 1501,-255.92 1501,-251.96 1504.96,-248 1508.92,-248 1508.92,-248 1784.33,-248 1784.33,-248 1788.29,-248 1792.25,-251.96 1792.25,-255.92 1792.25,-255.92 1792.25,-263.83 1792.25,-263.83 1792.25,-267.79 1788.29,-271.75 1784.33,-271.75"/>
<text text-anchor="middle" x="1646.62" y="-254.45" font-family="Arial" font-size="14.00" fill="#cfffac">app/pages/home/course/course.component.ts</text>
</g>
<!-- app/pages/home/home.module.ts&#45;&gt;app/pages/home/course/course.component.ts -->
<g id="edge20" class="edge">
<title>app/pages/home/home.module.ts&#45;&gt;app/pages/home/course/course.component.ts</title>
<path fill="none" stroke="#757575" d="M1339.85,-182.67C1356,-186.16 1371.99,-191.33 1386.25,-198.88 1407.39,-210.06 1400.88,-228.13 1422.25,-238.88 1442.98,-249.3 1466.16,-256.01 1489.52,-260.17"/>
<polygon fill="#757575" stroke="#757575" points="1488.7,-263.58 1499.13,-261.71 1489.81,-256.67 1488.7,-263.58"/>
</g>
<!-- app/pages/home/general&#45;introduction/general&#45;introduction.component.ts -->
<g id="node18" class="node">
<title>app/pages/home/general&#45;introduction/general&#45;introduction.component.ts</title>
<path fill="none" stroke="#cfffac" d="M1863.08,-229.75C1863.08,-229.75 1430.17,-229.75 1430.17,-229.75 1426.21,-229.75 1422.25,-225.79 1422.25,-221.83 1422.25,-221.83 1422.25,-213.92 1422.25,-213.92 1422.25,-209.96 1426.21,-206 1430.17,-206 1430.17,-206 1863.08,-206 1863.08,-206 1867.04,-206 1871,-209.96 1871,-213.92 1871,-213.92 1871,-221.83 1871,-221.83 1871,-225.79 1867.04,-229.75 1863.08,-229.75"/>
<text text-anchor="middle" x="1646.62" y="-212.45" font-family="Arial" font-size="14.00" fill="#cfffac">app/pages/home/general&#45;introduction/general&#45;introduction.component.ts</text>
</g>
<!-- app/pages/home/home.module.ts&#45;&gt;app/pages/home/general&#45;introduction/general&#45;introduction.component.ts -->
<g id="edge21" class="edge">
<title>app/pages/home/home.module.ts&#45;&gt;app/pages/home/general&#45;introduction/general&#45;introduction.component.ts</title>
<path fill="none" stroke="#757575" d="M1340.04,-188.36C1390.82,-193.26 1451.92,-199.17 1506.1,-204.4"/>
<polygon fill="#757575" stroke="#757575" points="1505.75,-207.88 1516.04,-205.36 1506.42,-200.91 1505.75,-207.88"/>
</g>
<!-- app/pages/home/home.component.ts -->
<g id="node19" class="node">
<title>app/pages/home/home.component.ts</title>
<path fill="none" stroke="#cfffac" d="M2152.08,-169.75C2152.08,-169.75 1926.92,-169.75 1926.92,-169.75 1922.96,-169.75 1919,-165.79 1919,-161.83 1919,-161.83 1919,-153.92 1919,-153.92 1919,-149.96 1922.96,-146 1926.92,-146 1926.92,-146 2152.08,-146 2152.08,-146 2156.04,-146 2160,-149.96 2160,-153.92 2160,-153.92 2160,-161.83 2160,-161.83 2160,-165.79 2156.04,-169.75 2152.08,-169.75"/>
<text text-anchor="middle" x="2039.5" y="-152.45" font-family="Arial" font-size="14.00" fill="#cfffac">app/pages/home/home.component.ts</text>
</g>
<!-- app/pages/home/home.module.ts&#45;&gt;app/pages/home/home.component.ts -->
<g id="edge22" class="edge">
<title>app/pages/home/home.module.ts&#45;&gt;app/pages/home/home.component.ts</title>
<path fill="none" stroke="#757575" d="M1339.92,-175.19C1487.05,-171.54 1749.68,-165.03 1907.61,-161.12"/>
<polygon fill="#757575" stroke="#757575" points="1907.38,-164.63 1917.29,-160.88 1907.21,-157.63 1907.38,-164.63"/>
</g>
<!-- app/pages/home/home.routing.module.ts -->
<g id="node20" class="node">
<title>app/pages/home/home.routing.module.ts</title>
<path fill="none" stroke="#c6c5fe" d="M1770.46,-149.75C1770.46,-149.75 1522.79,-149.75 1522.79,-149.75 1518.83,-149.75 1514.88,-145.79 1514.88,-141.83 1514.88,-141.83 1514.88,-133.92 1514.88,-133.92 1514.88,-129.96 1518.83,-126 1522.79,-126 1522.79,-126 1770.46,-126 1770.46,-126 1774.42,-126 1778.38,-129.96 1778.38,-133.92 1778.38,-133.92 1778.38,-141.83 1778.38,-141.83 1778.38,-145.79 1774.42,-149.75 1770.46,-149.75"/>
<text text-anchor="middle" x="1646.62" y="-132.45" font-family="Arial" font-size="14.00" fill="#c6c5fe">app/pages/home/home.routing.module.ts</text>
</g>
<!-- app/pages/home/home.module.ts&#45;&gt;app/pages/home/home.routing.module.ts -->
<g id="edge23" class="edge">
<title>app/pages/home/home.module.ts&#45;&gt;app/pages/home/home.routing.module.ts</title>
<path fill="none" stroke="#757575" d="M1340.04,-167.39C1390.82,-162.49 1451.92,-156.58 1506.1,-151.35"/>
<polygon fill="#757575" stroke="#757575" points="1506.42,-154.84 1516.04,-150.39 1505.75,-147.87 1506.42,-154.84"/>
</g>
<!-- app/pages/home/review/review.component.ts -->
<g id="node21" class="node">
<title>app/pages/home/review/review.component.ts</title>
<path fill="none" stroke="#c6c5fe" d="M1782.46,-107.75C1782.46,-107.75 1510.79,-107.75 1510.79,-107.75 1506.83,-107.75 1502.88,-103.79 1502.88,-99.83 1502.88,-99.83 1502.88,-91.92 1502.88,-91.92 1502.88,-87.96 1506.83,-84 1510.79,-84 1510.79,-84 1782.46,-84 1782.46,-84 1786.42,-84 1790.38,-87.96 1790.38,-91.92 1790.38,-91.92 1790.38,-99.83 1790.38,-99.83 1790.38,-103.79 1786.42,-107.75 1782.46,-107.75"/>
<text text-anchor="middle" x="1646.62" y="-90.45" font-family="Arial" font-size="14.00" fill="#c6c5fe">app/pages/home/review/review.component.ts</text>
</g>
<!-- app/pages/home/home.module.ts&#45;&gt;app/pages/home/review/review.component.ts -->
<g id="edge24" class="edge">
<title>app/pages/home/home.module.ts&#45;&gt;app/pages/home/review/review.component.ts</title>
<path fill="none" stroke="#757575" d="M1262.67,-165.61C1299.99,-151.46 1364.68,-128.64 1422.25,-116.88 1444.39,-112.35 1467.96,-108.8 1491.18,-106.01"/>
<polygon fill="#757575" stroke="#757575" points="1491.51,-109.49 1501.04,-104.87 1490.71,-102.54 1491.51,-109.49"/>
</g>
<!-- app/patern/card/card.component.ts -->
<g id="node22" class="node">
<title>app/patern/card/card.component.ts</title>
<path fill="none" stroke="#c6c5fe" d="M1751.71,-65.75C1751.71,-65.75 1541.54,-65.75 1541.54,-65.75 1537.58,-65.75 1533.62,-61.79 1533.62,-57.83 1533.62,-57.83 1533.62,-49.92 1533.62,-49.92 1533.62,-45.96 1537.58,-42 1541.54,-42 1541.54,-42 1751.71,-42 1751.71,-42 1755.67,-42 1759.62,-45.96 1759.62,-49.92 1759.62,-49.92 1759.62,-57.83 1759.62,-57.83 1759.62,-61.79 1755.67,-65.75 1751.71,-65.75"/>
<text text-anchor="middle" x="1646.62" y="-48.45" font-family="Arial" font-size="14.00" fill="#c6c5fe">app/patern/card/card.component.ts</text>
</g>
<!-- app/pages/home/home.module.ts&#45;&gt;app/patern/card/card.component.ts -->
<g id="edge25" class="edge">
<title>app/pages/home/home.module.ts&#45;&gt;app/patern/card/card.component.ts</title>
<path fill="none" stroke="#757575" d="M1248.59,-165.54C1280.76,-143.05 1353.28,-95.79 1422.25,-74.88 1453.9,-65.28 1489.12,-59.74 1522.07,-56.62"/>
<polygon fill="#757575" stroke="#757575" points="1521.98,-60.14 1531.64,-55.78 1521.38,-53.16 1521.98,-60.14"/>
</g>
<!-- app/patern/footer/footer.component.ts -->
<g id="node23" class="node">
<title>app/patern/footer/footer.component.ts</title>
<path fill="none" stroke="#cfffac" d="M1759.58,-23.75C1759.58,-23.75 1533.67,-23.75 1533.67,-23.75 1529.71,-23.75 1525.75,-19.79 1525.75,-15.83 1525.75,-15.83 1525.75,-7.92 1525.75,-7.92 1525.75,-3.96 1529.71,0 1533.67,0 1533.67,0 1759.58,0 1759.58,0 1763.54,0 1767.5,-3.96 1767.5,-7.92 1767.5,-7.92 1767.5,-15.83 1767.5,-15.83 1767.5,-19.79 1763.54,-23.75 1759.58,-23.75"/>
<text text-anchor="middle" x="1646.62" y="-6.45" font-family="Arial" font-size="14.00" fill="#cfffac">app/patern/footer/footer.component.ts</text>
</g>
<!-- app/pages/home/home.module.ts&#45;&gt;app/patern/footer/footer.component.ts -->
<g id="edge26" class="edge">
<title>app/pages/home/home.module.ts&#45;&gt;app/patern/footer/footer.component.ts</title>
<path fill="none" stroke="#757575" d="M1242.53,-165.75C1269.73,-136.76 1343.58,-63.56 1422.25,-32.88 1450.93,-21.69 1483.2,-15.41 1514.1,-12.07"/>
<polygon fill="#757575" stroke="#757575" points="1514.3,-15.57 1523.91,-11.12 1513.62,-8.6 1514.3,-15.57"/>
</g>
<!-- app/base/utils/test&#45;helper.ts -->
<g id="node7" class="node">
<title>app/base/utils/test&#45;helper.ts</title>
<path fill="none" stroke="#cfffac" d="M216.21,-304.75C216.21,-304.75 51.79,-304.75 51.79,-304.75 47.83,-304.75 43.88,-300.79 43.88,-296.83 43.88,-296.83 43.88,-288.92 43.88,-288.92 43.88,-284.96 47.83,-281 51.79,-281 51.79,-281 216.21,-281 216.21,-281 220.17,-281 224.12,-284.96 224.12,-288.92 224.12,-288.92 224.12,-296.83 224.12,-296.83 224.12,-300.79 220.17,-304.75 216.21,-304.75"/>
<text text-anchor="middle" x="134" y="-287.45" font-family="Arial" font-size="14.00" fill="#cfffac">app/base/utils/test&#45;helper.ts</text>
</g>
<!-- app/book&#45;list/book&#45;list.service.ts&#45;&gt;app/book&#45;list/booklist.model.ts -->
<g id="edge11" class="edge">
<title>app/book&#45;list/book&#45;list.service.ts&#45;&gt;app/book&#45;list/booklist.model.ts</title>
<path fill="none" stroke="#757575" d="M1334.4,-373.94C1395.87,-368 1473.89,-360.46 1536.44,-354.42"/>
<polygon fill="#757575" stroke="#757575" points="1536.41,-357.94 1546.03,-353.5 1535.74,-350.97 1536.41,-357.94"/>
</g>
<!-- app/book&#45;list/books.actions.ts&#45;&gt;app/book&#45;list/booklist.model.ts -->
<g id="edge12" class="edge">
<title>app/book&#45;list/books.actions.ts&#45;&gt;app/book&#45;list/booklist.model.ts</title>
<path fill="none" stroke="#757575" d="M1327.49,-414.31C1346.99,-411.55 1367.32,-408.38 1386.25,-404.88 1456.38,-391.9 1536.13,-372.43 1588.46,-358.99"/>
<polygon fill="#757575" stroke="#757575" points="1589.25,-362.4 1598.06,-356.51 1587.5,-355.62 1589.25,-362.4"/>
</g>
<!-- app/book&#45;list/books.selector.ts&#45;&gt;app/book&#45;list/booklist.model.ts -->
<g id="edge15" class="edge">
<title>app/book&#45;list/books.selector.ts&#45;&gt;app/book&#45;list/booklist.model.ts</title>
<path fill="none" stroke="#757575" d="M1329.02,-313.69C1358.93,-316.68 1391.94,-319.94 1422.25,-322.88 1459.41,-326.47 1500.05,-330.32 1536.36,-333.72"/>
<polygon fill="#757575" stroke="#757575" points="1535.69,-337.18 1545.97,-334.63 1536.34,-330.21 1535.69,-337.18"/>
</g>
<!-- app/book&#45;list/collections/collections.component.ts&#45;&gt;app/book&#45;list/booklist.model.ts -->
<g id="edge17" class="edge">
<title>app/book&#45;list/collections/collections.component.ts&#45;&gt;app/book&#45;list/booklist.model.ts</title>
<path fill="none" stroke="#757575" d="M1366.3,-274.15C1373.2,-276.63 1379.9,-279.52 1386.25,-282.88 1407.39,-294.06 1400.88,-312.13 1422.25,-322.88 1457.01,-340.35 1498.66,-347.39 1536.52,-349.47"/>
<polygon fill="#757575" stroke="#757575" points="1535.96,-352.95 1546.1,-349.88 1536.26,-345.95 1535.96,-352.95"/>
</g>
<!-- app/book&#45;list/list/list.component.ts&#45;&gt;app/book&#45;list/booklist.model.ts -->
<g id="edge18" class="edge">
<title>app/book&#45;list/list/list.component.ts&#45;&gt;app/book&#45;list/booklist.model.ts</title>
<path fill="none" stroke="#757575" d="M1339.89,-220.25C1356.57,-224.2 1372.72,-230.67 1386.25,-240.88 1418.03,-264.84 1389.98,-299.57 1422.25,-322.88 1454.66,-346.28 1496.98,-354.29 1536.05,-355.49"/>
<polygon fill="#757575" stroke="#757575" points="1535.95,-358.99 1546,-355.64 1536.06,-351.99 1535.95,-358.99"/>
</g>
<!-- app/book&#45;list/books.reducer.ts -->
<g id="node14" class="node">
<title>app/book&#45;list/books.reducer.ts</title>
<path fill="none" stroke="#c6c5fe" d="M1012.46,-477.75C1012.46,-477.75 833.04,-477.75 833.04,-477.75 829.08,-477.75 825.12,-473.79 825.12,-469.83 825.12,-469.83 825.12,-461.92 825.12,-461.92 825.12,-457.96 829.08,-454 833.04,-454 833.04,-454 1012.46,-454 1012.46,-454 1016.42,-454 1020.38,-457.96 1020.38,-461.92 1020.38,-461.92 1020.38,-469.83 1020.38,-469.83 1020.38,-473.79 1016.42,-477.75 1012.46,-477.75"/>
<text text-anchor="middle" x="922.75" y="-460.45" font-family="Arial" font-size="14.00" fill="#c6c5fe">app/book&#45;list/books.reducer.ts</text>
</g>
<!-- app/book&#45;list/books.reducer.ts&#45;&gt;app/book&#45;list/booklist.model.ts -->
<g id="edge13" class="edge">
<title>app/book&#45;list/books.reducer.ts&#45;&gt;app/book&#45;list/booklist.model.ts</title>
<path fill="none" stroke="#757575" d="M1020.59,-471.26C1114.99,-474.33 1262.05,-473.29 1386.25,-446.88 1471.06,-428.84 1564.05,-385.68 1612.34,-361.34"/>
<polygon fill="#757575" stroke="#757575" points="1613.84,-364.51 1621.16,-356.85 1610.66,-358.27 1613.84,-364.51"/>
</g>
<!-- app/book&#45;list/books.reducer.ts&#45;&gt;app/book&#45;list/books.actions.ts -->
<g id="edge14" class="edge">
<title>app/book&#45;list/books.reducer.ts&#45;&gt;app/book&#45;list/books.actions.ts</title>
<path fill="none" stroke="#757575" d="M1017.98,-453.55C1051.55,-449.16 1089.56,-444.18 1124.01,-439.68"/>
<polygon fill="#757575" stroke="#757575" points="1124.09,-443.19 1133.55,-438.43 1123.18,-436.25 1124.09,-443.19"/>
</g>
<!-- app/book&#45;list/collection.reducer.ts -->
<g id="node15" class="node">
<title>app/book&#45;list/collection.reducer.ts</title>
<path fill="none" stroke="#c6c5fe" d="M1022.58,-435.75C1022.58,-435.75 822.92,-435.75 822.92,-435.75 818.96,-435.75 815,-431.79 815,-427.83 815,-427.83 815,-419.92 815,-419.92 815,-415.96 818.96,-412 822.92,-412 822.92,-412 1022.58,-412 1022.58,-412 1026.54,-412 1030.5,-415.96 1030.5,-419.92 1030.5,-419.92 1030.5,-427.83 1030.5,-427.83 1030.5,-431.79 1026.54,-435.75 1022.58,-435.75"/>
<text text-anchor="middle" x="922.75" y="-418.45" font-family="Arial" font-size="14.00" fill="#c6c5fe">app/book&#45;list/collection.reducer.ts</text>
</g>
<!-- app/book&#45;list/collection.reducer.ts&#45;&gt;app/book&#45;list/books.actions.ts -->
<g id="edge16" class="edge">
<title>app/book&#45;list/collection.reducer.ts&#45;&gt;app/book&#45;list/books.actions.ts</title>
<path fill="none" stroke="#757575" d="M1030.69,-424.57C1060.39,-424.77 1092.64,-424.98 1122.35,-425.17"/>
<polygon fill="#757575" stroke="#757575" points="1122.06,-428.67 1132.09,-425.24 1122.11,-421.67 1122.06,-428.67"/>
</g>
<!-- app/pages/home/home.routing.module.ts&#45;&gt;app/pages/home/home.component.ts -->
<g id="edge27" class="edge">
<title>app/pages/home/home.routing.module.ts&#45;&gt;app/pages/home/home.component.ts</title>
<path fill="none" stroke="#757575" d="M1778.87,-144.59C1820.31,-146.71 1866.09,-149.05 1907.51,-151.17"/>
<polygon fill="#757575" stroke="#757575" points="1907.12,-154.66 1917.28,-151.67 1907.47,-147.67 1907.12,-154.66"/>
</g>
<!-- app/pages/home/review/review.store.ts -->
<g id="node24" class="node">
<title>app/pages/home/review/review.store.ts</title>
<path fill="none" stroke="#cfffac" d="M2156.58,-107.75C2156.58,-107.75 1922.42,-107.75 1922.42,-107.75 1918.46,-107.75 1914.5,-103.79 1914.5,-99.83 1914.5,-99.83 1914.5,-91.92 1914.5,-91.92 1914.5,-87.96 1918.46,-84 1922.42,-84 1922.42,-84 2156.58,-84 2156.58,-84 2160.54,-84 2164.5,-87.96 2164.5,-91.92 2164.5,-91.92 2164.5,-99.83 2164.5,-99.83 2164.5,-103.79 2160.54,-107.75 2156.58,-107.75"/>
<text text-anchor="middle" x="2039.5" y="-90.45" font-family="Arial" font-size="14.00" fill="#cfffac">app/pages/home/review/review.store.ts</text>
</g>
<!-- app/pages/home/review/review.component.ts&#45;&gt;app/pages/home/review/review.store.ts -->
<g id="edge28" class="edge">
<title>app/pages/home/review/review.component.ts&#45;&gt;app/pages/home/review/review.store.ts</title>
<path fill="none" stroke="#757575" d="M1790.68,-95.88C1827.32,-95.88 1866.62,-95.88 1902.88,-95.88"/>
<polygon fill="#757575" stroke="#757575" points="1902.51,-99.38 1912.51,-95.88 1902.51,-92.38 1902.51,-99.38"/>
</g>
<!-- app/patern/card/card.type.ts -->
<g id="node25" class="node">
<title>app/patern/card/card.type.ts</title>
<path fill="none" stroke="#cfffac" d="M2123.58,-65.75C2123.58,-65.75 1955.42,-65.75 1955.42,-65.75 1951.46,-65.75 1947.5,-61.79 1947.5,-57.83 1947.5,-57.83 1947.5,-49.92 1947.5,-49.92 1947.5,-45.96 1951.46,-42 1955.42,-42 1955.42,-42 2123.58,-42 2123.58,-42 2127.54,-42 2131.5,-45.96 2131.5,-49.92 2131.5,-49.92 2131.5,-57.83 2131.5,-57.83 2131.5,-61.79 2127.54,-65.75 2123.58,-65.75"/>
<text text-anchor="middle" x="2039.5" y="-48.45" font-family="Arial" font-size="14.00" fill="#cfffac">app/patern/card/card.type.ts</text>
</g>
<!-- app/patern/card/card.component.ts&#45;&gt;app/patern/card/card.type.ts -->
<g id="edge29" class="edge">
<title>app/patern/card/card.component.ts&#45;&gt;app/patern/card/card.type.ts</title>
<path fill="none" stroke="#757575" d="M1759.9,-53.88C1815.28,-53.88 1881.62,-53.88 1935.66,-53.88"/>
<polygon fill="#757575" stroke="#757575" points="1935.49,-57.38 1945.49,-53.88 1935.49,-50.38 1935.49,-57.38"/>
</g>
<!-- app/shared/ui/avatar/avatar.component.ts -->
<g id="node26" class="node">
<title>app/shared/ui/avatar/avatar.component.ts</title>
<path fill="none" stroke="#cfffac" d="M2164.08,-23.75C2164.08,-23.75 1914.92,-23.75 1914.92,-23.75 1910.96,-23.75 1907,-19.79 1907,-15.83 1907,-15.83 1907,-7.92 1907,-7.92 1907,-3.96 1910.96,0 1914.92,0 1914.92,0 2164.08,0 2164.08,0 2168.04,0 2172,-3.96 2172,-7.92 2172,-7.92 2172,-15.83 2172,-15.83 2172,-19.79 2168.04,-23.75 2164.08,-23.75"/>
<text text-anchor="middle" x="2039.5" y="-6.45" font-family="Arial" font-size="14.00" fill="#cfffac">app/shared/ui/avatar/avatar.component.ts</text>
</g>
<!-- app/patern/card/card.component.ts&#45;&gt;app/shared/ui/avatar/avatar.component.ts -->
<g id="edge30" class="edge">
<title>app/patern/card/card.component.ts&#45;&gt;app/shared/ui/avatar/avatar.component.ts</title>
<path fill="none" stroke="#757575" d="M1759.9,-44.01C1795.45,-40.7 1834.89,-36.83 1871,-32.88 1891.03,-30.68 1912.39,-28.15 1932.91,-25.62"/>
<polygon fill="#757575" stroke="#757575" points="1933.22,-29.11 1942.71,-24.4 1932.36,-22.16 1933.22,-29.11"/>
</g>
<!-- app/patern/header/desktop&#45;tablet&#45;menu/desktop&#45;tablet&#45;menu.component.ts -->
<g id="node27" class="node">
<title>app/patern/header/desktop&#45;tablet&#45;menu/desktop&#45;tablet&#45;menu.component.ts</title>
<path fill="none" stroke="#cfffac" d="M762.83,-378.75C762.83,-378.75 311.92,-378.75 311.92,-378.75 307.96,-378.75 304,-374.79 304,-370.83 304,-370.83 304,-362.92 304,-362.92 304,-358.96 307.96,-355 311.92,-355 311.92,-355 762.83,-355 762.83,-355 766.79,-355 770.75,-358.96 770.75,-362.92 770.75,-362.92 770.75,-370.83 770.75,-370.83 770.75,-374.79 766.79,-378.75 762.83,-378.75"/>
<text text-anchor="middle" x="537.38" y="-361.45" font-family="Arial" font-size="14.00" fill="#cfffac">app/patern/header/desktop&#45;tablet&#45;menu/desktop&#45;tablet&#45;menu.component.ts</text>
</g>
<!-- app/patern/header/header.component.ts -->
<g id="node28" class="node">
<title>app/patern/header/header.component.ts</title>
<path fill="none" stroke="#c6c5fe" d="M254.46,-346.75C254.46,-346.75 13.54,-346.75 13.54,-346.75 9.58,-346.75 5.62,-342.79 5.62,-338.83 5.62,-338.83 5.62,-330.92 5.62,-330.92 5.62,-326.96 9.58,-323 13.54,-323 13.54,-323 254.46,-323 254.46,-323 258.42,-323 262.38,-326.96 262.38,-330.92 262.38,-330.92 262.38,-338.83 262.38,-338.83 262.38,-342.79 258.42,-346.75 254.46,-346.75"/>
<text text-anchor="middle" x="134" y="-329.45" font-family="Arial" font-size="14.00" fill="#c6c5fe">app/patern/header/header.component.ts</text>
</g>
<!-- app/patern/header/header.component.ts&#45;&gt;app/patern/header/desktop&#45;tablet&#45;menu/desktop&#45;tablet&#45;menu.component.ts -->
<g id="edge31" class="edge">
<title>app/patern/header/header.component.ts&#45;&gt;app/patern/header/desktop&#45;tablet&#45;menu/desktop&#45;tablet&#45;menu.component.ts</title>
<path fill="none" stroke="#757575" d="M262.83,-345.07C296.93,-347.79 334.29,-350.76 370.13,-353.62"/>
<polygon fill="#757575" stroke="#757575" points="369.45,-357.08 379.7,-354.38 370.01,-350.1 369.45,-357.08"/>
</g>
<!-- app/patern/header/mobile&#45;menu/mobile&#45;menu.component.ts -->
<g id="node29" class="node">
<title>app/patern/header/mobile&#45;menu/mobile&#45;menu.component.ts</title>
<path fill="none" stroke="#cfffac" d="M718.58,-336.75C718.58,-336.75 356.17,-336.75 356.17,-336.75 352.21,-336.75 348.25,-332.79 348.25,-328.83 348.25,-328.83 348.25,-320.92 348.25,-320.92 348.25,-316.96 352.21,-313 356.17,-313 356.17,-313 718.58,-313 718.58,-313 722.54,-313 726.5,-316.96 726.5,-320.92 726.5,-320.92 726.5,-328.83 726.5,-328.83 726.5,-332.79 722.54,-336.75 718.58,-336.75"/>
<text text-anchor="middle" x="537.38" y="-319.45" font-family="Arial" font-size="14.00" fill="#cfffac">app/patern/header/mobile&#45;menu/mobile&#45;menu.component.ts</text>
</g>
<!-- app/patern/header/header.component.ts&#45;&gt;app/patern/header/mobile&#45;menu/mobile&#45;menu.component.ts -->
<g id="edge32" class="edge">
<title>app/patern/header/header.component.ts&#45;&gt;app/patern/header/mobile&#45;menu/mobile&#45;menu.component.ts</title>
<path fill="none" stroke="#757575" d="M262.83,-331.69C286.31,-331.11 311.33,-330.48 336.34,-329.86"/>
<polygon fill="#757575" stroke="#757575" points="336.4,-333.36 346.31,-329.61 336.23,-326.36 336.4,-333.36"/>
</g>
<!-- app/shared/mock/httpResponse.interface.ts -->
<g id="node30" class="node">
<title>app/shared/mock/httpResponse.interface.ts</title>
<path fill="none" stroke="#cfffac" d="M667.96,-420.75C667.96,-420.75 406.79,-420.75 406.79,-420.75 402.83,-420.75 398.88,-416.79 398.88,-412.83 398.88,-412.83 398.88,-404.92 398.88,-404.92 398.88,-400.96 402.83,-397 406.79,-397 406.79,-397 667.96,-397 667.96,-397 671.92,-397 675.88,-400.96 675.88,-404.92 675.88,-404.92 675.88,-412.83 675.88,-412.83 675.88,-416.79 671.92,-420.75 667.96,-420.75"/>
<text text-anchor="middle" x="537.38" y="-403.45" font-family="Arial" font-size="14.00" fill="#cfffac">app/shared/mock/httpResponse.interface.ts</text>
</g>
<!-- app/shared/mock/mock.service.ts -->
<g id="node31" class="node">
<title>app/shared/mock/mock.service.ts</title>
<path fill="none" stroke="#c6c5fe" d="M234.96,-420.75C234.96,-420.75 33.04,-420.75 33.04,-420.75 29.08,-420.75 25.12,-416.79 25.12,-412.83 25.12,-412.83 25.12,-404.92 25.12,-404.92 25.12,-400.96 29.08,-397 33.04,-397 33.04,-397 234.96,-397 234.96,-397 238.92,-397 242.88,-400.96 242.88,-404.92 242.88,-404.92 242.88,-412.83 242.88,-412.83 242.88,-416.79 238.92,-420.75 234.96,-420.75"/>
<text text-anchor="middle" x="134" y="-403.45" font-family="Arial" font-size="14.00" fill="#c6c5fe">app/shared/mock/mock.service.ts</text>
</g>
<!-- app/shared/mock/mock.service.ts&#45;&gt;app/shared/mock/httpResponse.interface.ts -->
<g id="edge33" class="edge">
<title>app/shared/mock/mock.service.ts&#45;&gt;app/shared/mock/httpResponse.interface.ts</title>
<path fill="none" stroke="#757575" d="M243.35,-408.88C287.63,-408.88 339.58,-408.88 387.34,-408.88"/>
<polygon fill="#757575" stroke="#757575" points="387.23,-412.38 397.23,-408.88 387.23,-405.38 387.23,-412.38"/>
</g>
<!-- app/shared/services/home.service.ts -->
<g id="node32" class="node">
<title>app/shared/services/home.service.ts</title>
<path fill="none" stroke="#cfffac" d="M243.96,-462.75C243.96,-462.75 24.04,-462.75 24.04,-462.75 20.08,-462.75 16.12,-458.79 16.12,-454.83 16.12,-454.83 16.12,-446.92 16.12,-446.92 16.12,-442.96 20.08,-439 24.04,-439 24.04,-439 243.96,-439 243.96,-439 247.92,-439 251.88,-442.96 251.88,-446.92 251.88,-446.92 251.88,-454.83 251.88,-454.83 251.88,-458.79 247.92,-462.75 243.96,-462.75"/>
<text text-anchor="middle" x="134" y="-445.45" font-family="Arial" font-size="14.00" fill="#cfffac">app/shared/services/home.service.ts</text>
</g>
<!-- app/shared/ui/button/button.component.ts -->
<g id="node33" class="node">
<title>app/shared/ui/button/button.component.ts</title>
<path fill="none" stroke="#c6c5fe" d="M258.96,-504.75C258.96,-504.75 9.04,-504.75 9.04,-504.75 5.08,-504.75 1.12,-500.79 1.12,-496.83 1.12,-496.83 1.12,-488.92 1.12,-488.92 1.12,-484.96 5.08,-481 9.04,-481 9.04,-481 258.96,-481 258.96,-481 262.92,-481 266.88,-484.96 266.88,-488.92 266.88,-488.92 266.88,-496.83 266.88,-496.83 266.88,-500.79 262.92,-504.75 258.96,-504.75"/>
<text text-anchor="middle" x="134" y="-487.45" font-family="Arial" font-size="14.00" fill="#c6c5fe">app/shared/ui/button/button.component.ts</text>
</g>
<!-- app/shared/ui/button/button.type.ts -->
<g id="node34" class="node">
<title>app/shared/ui/button/button.type.ts</title>
<path fill="none" stroke="#cfffac" d="M641.33,-504.75C641.33,-504.75 433.42,-504.75 433.42,-504.75 429.46,-504.75 425.5,-500.79 425.5,-496.83 425.5,-496.83 425.5,-488.92 425.5,-488.92 425.5,-484.96 429.46,-481 433.42,-481 433.42,-481 641.33,-481 641.33,-481 645.29,-481 649.25,-484.96 649.25,-488.92 649.25,-488.92 649.25,-496.83 649.25,-496.83 649.25,-500.79 645.29,-504.75 641.33,-504.75"/>
<text text-anchor="middle" x="537.38" y="-487.45" font-family="Arial" font-size="14.00" fill="#cfffac">app/shared/ui/button/button.type.ts</text>
</g>
<!-- app/shared/ui/button/button.component.ts&#45;&gt;app/shared/ui/button/button.type.ts -->
<g id="edge34" class="edge">
<title>app/shared/ui/button/button.component.ts&#45;&gt;app/shared/ui/button/button.type.ts</title>
<path fill="none" stroke="#757575" d="M267.26,-492.88C314.53,-492.88 367.55,-492.88 413.95,-492.88"/>
<polygon fill="#757575" stroke="#757575" points="413.77,-496.38 423.77,-492.88 413.77,-489.38 413.77,-496.38"/>
</g>
<!-- app/shared/ui/icon/icon.component.ts -->
<g id="node35" class="node">
<title>app/shared/ui/icon/icon.component.ts</title>
<path fill="none" stroke="#cfffac" d="M246.21,-567.75C246.21,-567.75 21.79,-567.75 21.79,-567.75 17.83,-567.75 13.88,-563.79 13.88,-559.83 13.88,-559.83 13.88,-551.92 13.88,-551.92 13.88,-547.96 17.83,-544 21.79,-544 21.79,-544 246.21,-544 246.21,-544 250.17,-544 254.12,-547.96 254.12,-551.92 254.12,-551.92 254.12,-559.83 254.12,-559.83 254.12,-563.79 250.17,-567.75 246.21,-567.75"/>
<text text-anchor="middle" x="134" y="-550.45" font-family="Arial" font-size="14.00" fill="#cfffac">app/shared/ui/icon/icon.component.ts</text>
</g>
<!-- app/shared/ui/icon/icons.ts -->
<g id="node36" class="node">
<title>app/shared/ui/icon/icons.ts</title>
<path fill="none" stroke="#c6c5fe" d="M213.96,-630.75C213.96,-630.75 54.04,-630.75 54.04,-630.75 50.08,-630.75 46.12,-626.79 46.12,-622.83 46.12,-622.83 46.12,-614.92 46.12,-614.92 46.12,-610.96 50.08,-607 54.04,-607 54.04,-607 213.96,-607 213.96,-607 217.92,-607 221.88,-610.96 221.88,-614.92 221.88,-614.92 221.88,-622.83 221.88,-622.83 221.88,-626.79 217.92,-630.75 213.96,-630.75"/>
<text text-anchor="middle" x="134" y="-613.45" font-family="Arial" font-size="14.00" fill="#c6c5fe">app/shared/ui/icon/icons.ts</text>
</g>
<!-- app/shared/ui/icon/svg/android&#45;store.ts -->
<g id="node37" class="node">
<title>app/shared/ui/icon/svg/android&#45;store.ts</title>
<path fill="none" stroke="#cfffac" d="M653.71,-714.75C653.71,-714.75 421.04,-714.75 421.04,-714.75 417.08,-714.75 413.12,-710.79 413.12,-706.83 413.12,-706.83 413.12,-698.92 413.12,-698.92 413.12,-694.96 417.08,-691 421.04,-691 421.04,-691 653.71,-691 653.71,-691 657.67,-691 661.62,-694.96 661.62,-698.92 661.62,-698.92 661.62,-706.83 661.62,-706.83 661.62,-710.79 657.67,-714.75 653.71,-714.75"/>
<text text-anchor="middle" x="537.38" y="-697.45" font-family="Arial" font-size="14.00" fill="#cfffac">app/shared/ui/icon/svg/android&#45;store.ts</text>
</g>
<!-- app/shared/ui/icon/icons.ts&#45;&gt;app/shared/ui/icon/svg/android&#45;store.ts -->
<g id="edge35" class="edge">
<title>app/shared/ui/icon/icons.ts&#45;&gt;app/shared/ui/icon/svg/android&#45;store.ts</title>
<path fill="none" stroke="#757575" d="M222.03,-623.6C238,-626.93 254.02,-632.07 268,-639.88 289.46,-651.86 282.15,-670.61 304,-681.88 333.6,-697.14 368.15,-704.76 401.42,-708.08"/>
<polygon fill="#757575" stroke="#757575" points="400.87,-711.55 411.13,-708.92 401.47,-704.58 400.87,-711.55"/>
</g>
<!-- app/shared/ui/icon/svg/app&#45;store.ts -->
<g id="node38" class="node">
<title>app/shared/ui/icon/svg/app&#45;store.ts</title>
<path fill="none" stroke="#cfffac" d="M642.46,-672.75C642.46,-672.75 432.29,-672.75 432.29,-672.75 428.33,-672.75 424.38,-668.79 424.38,-664.83 424.38,-664.83 424.38,-656.92 424.38,-656.92 424.38,-652.96 428.33,-649 432.29,-649 432.29,-649 642.46,-649 642.46,-649 646.42,-649 650.38,-652.96 650.38,-656.92 650.38,-656.92 650.38,-664.83 650.38,-664.83 650.38,-668.79 646.42,-672.75 642.46,-672.75"/>
<text text-anchor="middle" x="537.38" y="-655.45" font-family="Arial" font-size="14.00" fill="#cfffac">app/shared/ui/icon/svg/app&#45;store.ts</text>
</g>
<!-- app/shared/ui/icon/icons.ts&#45;&gt;app/shared/ui/icon/svg/app&#45;store.ts -->
<g id="edge36" class="edge">
<title>app/shared/ui/icon/icons.ts&#45;&gt;app/shared/ui/icon/svg/app&#45;store.ts</title>
<path fill="none" stroke="#757575" d="M222.21,-630.28C248.48,-633.56 277.4,-637.02 304,-639.88 339.25,-643.66 377.56,-647.31 412.72,-650.47"/>
<polygon fill="#757575" stroke="#757575" points="412.24,-653.95 422.51,-651.35 412.86,-646.97 412.24,-653.95"/>
</g>
<!-- app/shared/ui/icon/svg/edit.ts -->
<g id="node39" class="node">
<title>app/shared/ui/icon/svg/edit.ts</title>
<path fill="none" stroke="#cfffac" d="M624.83,-630.75C624.83,-630.75 449.92,-630.75 449.92,-630.75 445.96,-630.75 442,-626.79 442,-622.83 442,-622.83 442,-614.92 442,-614.92 442,-610.96 445.96,-607 449.92,-607 449.92,-607 624.83,-607 624.83,-607 628.79,-607 632.75,-610.96 632.75,-614.92 632.75,-614.92 632.75,-622.83 632.75,-622.83 632.75,-626.79 628.79,-630.75 624.83,-630.75"/>
<text text-anchor="middle" x="537.38" y="-613.45" font-family="Arial" font-size="14.00" fill="#cfffac">app/shared/ui/icon/svg/edit.ts</text>
</g>
<!-- app/shared/ui/icon/icons.ts&#45;&gt;app/shared/ui/icon/svg/edit.ts -->
<g id="edge37" class="edge">
<title>app/shared/ui/icon/icons.ts&#45;&gt;app/shared/ui/icon/svg/edit.ts</title>
<path fill="none" stroke="#757575" d="M222.09,-618.88C283.21,-618.88 365.29,-618.88 430.24,-618.88"/>
<polygon fill="#757575" stroke="#757575" points="430.23,-622.38 440.23,-618.88 430.23,-615.38 430.23,-622.38"/>
</g>
<!-- app/shared/ui/icon/svg/logo.ts -->
<g id="node40" class="node">
<title>app/shared/ui/icon/svg/logo.ts</title>
<path fill="none" stroke="#cfffac" d="M626.71,-588.75C626.71,-588.75 448.04,-588.75 448.04,-588.75 444.08,-588.75 440.12,-584.79 440.12,-580.83 440.12,-580.83 440.12,-572.92 440.12,-572.92 440.12,-568.96 444.08,-565 448.04,-565 448.04,-565 626.71,-565 626.71,-565 630.67,-565 634.62,-568.96 634.62,-572.92 634.62,-572.92 634.62,-580.83 634.62,-580.83 634.62,-584.79 630.67,-588.75 626.71,-588.75"/>
<text text-anchor="middle" x="537.38" y="-571.45" font-family="Arial" font-size="14.00" fill="#cfffac">app/shared/ui/icon/svg/logo.ts</text>
</g>
<!-- app/shared/ui/icon/icons.ts&#45;&gt;app/shared/ui/icon/svg/logo.ts -->
<g id="edge38" class="edge">
<title>app/shared/ui/icon/icons.ts&#45;&gt;app/shared/ui/icon/svg/logo.ts</title>
<path fill="none" stroke="#757575" d="M222.21,-607.47C248.48,-604.19 277.4,-600.73 304,-597.88 344.51,-593.53 389.05,-589.36 428.21,-585.89"/>
<polygon fill="#757575" stroke="#757575" points="428.48,-589.38 438.13,-585.02 427.86,-582.41 428.48,-589.38"/>
</g>
<!-- app/shared/ui/icon/svg/start.ts -->
<g id="node41" class="node">
<title>app/shared/ui/icon/svg/start.ts</title>
<path fill="none" stroke="#cfffac" d="M627.08,-546.75C627.08,-546.75 447.67,-546.75 447.67,-546.75 443.71,-546.75 439.75,-542.79 439.75,-538.83 439.75,-538.83 439.75,-530.92 439.75,-530.92 439.75,-526.96 443.71,-523 447.67,-523 447.67,-523 627.08,-523 627.08,-523 631.04,-523 635,-526.96 635,-530.92 635,-530.92 635,-538.83 635,-538.83 635,-542.79 631.04,-546.75 627.08,-546.75"/>
<text text-anchor="middle" x="537.38" y="-529.45" font-family="Arial" font-size="14.00" fill="#cfffac">app/shared/ui/icon/svg/start.ts</text>
</g>
<!-- app/shared/ui/icon/icons.ts&#45;&gt;app/shared/ui/icon/svg/start.ts -->
<g id="edge39" class="edge">
<title>app/shared/ui/icon/icons.ts&#45;&gt;app/shared/ui/icon/svg/start.ts</title>
<path fill="none" stroke="#757575" d="M183.03,-606.5C208.74,-599.19 240.66,-588.99 268,-576.88 284.94,-569.37 286.35,-561.51 304,-555.88 343.33,-543.32 388.18,-537.43 427.92,-534.89"/>
<polygon fill="#757575" stroke="#757575" points="427.96,-538.39 437.74,-534.33 427.56,-531.41 427.96,-538.39"/>
</g>
<!-- app/shared/ui/icon/svg/close.ts -->
<g id="node42" class="node">
<title>app/shared/ui/icon/svg/close.ts</title>
<path fill="none" stroke="#cfffac" d="M226.33,-672.75C226.33,-672.75 41.67,-672.75 41.67,-672.75 37.71,-672.75 33.75,-668.79 33.75,-664.83 33.75,-664.83 33.75,-656.92 33.75,-656.92 33.75,-652.96 37.71,-649 41.67,-649 41.67,-649 226.33,-649 226.33,-649 230.29,-649 234.25,-652.96 234.25,-656.92 234.25,-656.92 234.25,-664.83 234.25,-664.83 234.25,-668.79 230.29,-672.75 226.33,-672.75"/>
<text text-anchor="middle" x="134" y="-655.45" font-family="Arial" font-size="14.00" fill="#cfffac">app/shared/ui/icon/svg/close.ts</text>
</g>
<!-- app/shared/ui/icon/svg/menu&#45;incollapse.ts -->
<g id="node43" class="node">
<title>app/shared/ui/icon/svg/menu&#45;incollapse.ts</title>
<path fill="none" stroke="#cfffac" d="M260.08,-714.75C260.08,-714.75 7.92,-714.75 7.92,-714.75 3.96,-714.75 0,-710.79 0,-706.83 0,-706.83 0,-698.92 0,-698.92 0,-694.96 3.96,-691 7.92,-691 7.92,-691 260.08,-691 260.08,-691 264.04,-691 268,-694.96 268,-698.92 268,-698.92 268,-706.83 268,-706.83 268,-710.79 264.04,-714.75 260.08,-714.75"/>
<text text-anchor="middle" x="134" y="-697.45" font-family="Arial" font-size="14.00" fill="#cfffac">app/shared/ui/icon/svg/menu&#45;incollapse.ts</text>
</g>
<!-- app/shared/ui/shared.module.ts -->
<g id="node44" class="node">
<title>app/shared/ui/shared.module.ts</title>
<path fill="none" stroke="#cfffac" d="M228.96,-756.75C228.96,-756.75 39.04,-756.75 39.04,-756.75 35.08,-756.75 31.12,-752.79 31.12,-748.83 31.12,-748.83 31.12,-740.92 31.12,-740.92 31.12,-736.96 35.08,-733 39.04,-733 39.04,-733 228.96,-733 228.96,-733 232.92,-733 236.88,-736.96 236.88,-740.92 236.88,-740.92 236.88,-748.83 236.88,-748.83 236.88,-752.79 232.92,-756.75 228.96,-756.75"/>
<text text-anchor="middle" x="134" y="-739.45" font-family="Arial" font-size="14.00" fill="#cfffac">app/shared/ui/shared.module.ts</text>
</g>
<!-- main.ts -->
<g id="node45" class="node">
<title>main.ts</title>
<path fill="none" stroke="#c6c5fe" d="M156.21,-262.75C156.21,-262.75 111.79,-262.75 111.79,-262.75 107.83,-262.75 103.88,-258.79 103.88,-254.83 103.88,-254.83 103.88,-246.92 103.88,-246.92 103.88,-242.96 107.83,-239 111.79,-239 111.79,-239 156.21,-239 156.21,-239 160.17,-239 164.12,-242.96 164.12,-246.92 164.12,-246.92 164.12,-254.83 164.12,-254.83 164.12,-258.79 160.17,-262.75 156.21,-262.75"/>
<text text-anchor="middle" x="134" y="-245.45" font-family="Arial" font-size="14.00" fill="#c6c5fe">main.ts</text>
</g>
<!-- main.ts&#45;&gt;app/app.component.ts -->
<g id="edge40" class="edge">
<title>main.ts&#45;&gt;app/app.component.ts</title>
<path fill="none" stroke="#757575" d="M164.51,-251.68C224.06,-253.32 360.58,-257.06 450.59,-259.52"/>
<polygon fill="#757575" stroke="#757575" points="450.27,-263.02 460.36,-259.79 450.46,-256.02 450.27,-263.02"/>
</g>
<!-- main.ts&#45;&gt;app/app.config.ts -->
<g id="edge41" class="edge">
<title>main.ts&#45;&gt;app/app.config.ts</title>
<path fill="none" stroke="#757575" d="M164.51,-248.6C227.65,-243.72 377.28,-232.16 466.3,-225.29"/>
<polygon fill="#757575" stroke="#757575" points="466.43,-228.79 476.13,-224.53 465.89,-221.81 466.43,-228.79"/>
</g>
</g>
</svg>
