<?xml version="1.0" encoding="UTF-8" standalone="no"?>
<!DOCTYPE svg PUBLIC "-//W3C//DTD SVG 1.1//EN"
 "http://www.w3.org/Graphics/SVG/1.1/DTD/svg11.dtd">
<!-- Generated by graphviz version 12.2.1 (20241206.2353)
 -->
<!-- Title: G Pages: 1 -->
<svg width="2214pt" height="946pt"
 viewBox="0.00 0.00 2214.45 945.95" xmlns="http://www.w3.org/2000/svg" xmlns:xlink="http://www.w3.org/1999/xlink">
<g id="graph0" class="graph" transform="scale(1 1) rotate(0) translate(21.6 924.35)">
<title>G</title>
<polygon fill="#111111" stroke="none" points="-21.6,21.6 -21.6,-924.35 2192.85,-924.35 2192.85,21.6 -21.6,21.6"/>
<!-- app/app.component.ts -->
<g id="node1" class="node">
<title>app/app.component.ts</title>
<path fill="none" stroke="#c6c5fe" d="M627.83,-209.75C627.83,-209.75 493.42,-209.75 493.42,-209.75 489.46,-209.75 485.5,-205.79 485.5,-201.83 485.5,-201.83 485.5,-193.92 485.5,-193.92 485.5,-189.96 489.46,-186 493.42,-186 493.42,-186 627.83,-186 627.83,-186 631.79,-186 635.75,-189.96 635.75,-193.92 635.75,-193.92 635.75,-201.83 635.75,-201.83 635.75,-205.79 631.79,-209.75 627.83,-209.75"/>
<text text-anchor="middle" x="560.62" y="-192.45" font-family="Arial" font-size="14.00" fill="#c6c5fe">app/app.component.ts</text>
</g>
<!-- app/book&#45;list/book&#45;list.component.ts -->
<g id="node2" class="node">
<title>app/book&#45;list/book&#45;list.component.ts</title>
<path fill="none" stroke="#c6c5fe" d="M1054.08,-251.75C1054.08,-251.75 837.92,-251.75 837.92,-251.75 833.96,-251.75 830,-247.79 830,-243.83 830,-243.83 830,-235.92 830,-235.92 830,-231.96 833.96,-228 837.92,-228 837.92,-228 1054.08,-228 1054.08,-228 1058.04,-228 1062,-231.96 1062,-235.92 1062,-235.92 1062,-243.83 1062,-243.83 1062,-247.79 1058.04,-251.75 1054.08,-251.75"/>
<text text-anchor="middle" x="946" y="-234.45" font-family="Arial" font-size="14.00" fill="#c6c5fe">app/book&#45;list/book&#45;list.component.ts</text>
</g>
<!-- app/app.component.ts&#45;&gt;app/book&#45;list/book&#45;list.component.ts -->
<g id="edge1" class="edge">
<title>app/app.component.ts&#45;&gt;app/book&#45;list/book&#45;list.component.ts</title>
<path fill="none" stroke="#757575" d="M636.02,-203.68C681.67,-207.47 741.28,-212.83 794,-218.88 812.27,-220.97 831.74,-223.47 850.42,-226.01"/>
<polygon fill="#757575" stroke="#757575" points="849.74,-229.45 860.12,-227.34 850.69,-222.52 849.74,-229.45"/>
</g>
<!-- app/book&#45;list/book&#45;list.service.ts -->
<g id="node9" class="node">
<title>app/book&#45;list/book&#45;list.service.ts</title>
<path fill="none" stroke="#c6c5fe" d="M1349.46,-331.75C1349.46,-331.75 1158.04,-331.75 1158.04,-331.75 1154.08,-331.75 1150.12,-327.79 1150.12,-323.83 1150.12,-323.83 1150.12,-315.92 1150.12,-315.92 1150.12,-311.96 1154.08,-308 1158.04,-308 1158.04,-308 1349.46,-308 1349.46,-308 1353.42,-308 1357.38,-311.96 1357.38,-315.92 1357.38,-315.92 1357.38,-323.83 1357.38,-323.83 1357.38,-327.79 1353.42,-331.75 1349.46,-331.75"/>
<text text-anchor="middle" x="1253.75" y="-314.45" font-family="Arial" font-size="14.00" fill="#c6c5fe">app/book&#45;list/book&#45;list.service.ts</text>
</g>
<!-- app/book&#45;list/book&#45;list.component.ts&#45;&gt;app/book&#45;list/book&#45;list.service.ts -->
<g id="edge5" class="edge">
<title>app/book&#45;list/book&#45;list.component.ts&#45;&gt;app/book&#45;list/book&#45;list.service.ts</title>
<path fill="none" stroke="#757575" d="M976.59,-252.22C1006.69,-264.36 1054.89,-282.64 1098,-293.88 1115.25,-298.37 1133.78,-302.27 1151.83,-305.57"/>
<polygon fill="#757575" stroke="#757575" points="1151.03,-308.99 1161.49,-307.29 1152.26,-302.1 1151.03,-308.99"/>
</g>
<!-- app/book&#45;list/booklist.model.ts -->
<g id="node10" class="node">
<title>app/book&#45;list/booklist.model.ts</title>
<path fill="none" stroke="#cfffac" d="M1760.71,-291.75C1760.71,-291.75 1579.04,-291.75 1579.04,-291.75 1575.08,-291.75 1571.12,-287.79 1571.12,-283.83 1571.12,-283.83 1571.12,-275.92 1571.12,-275.92 1571.12,-271.96 1575.08,-268 1579.04,-268 1579.04,-268 1760.71,-268 1760.71,-268 1764.67,-268 1768.62,-271.96 1768.62,-275.92 1768.62,-275.92 1768.62,-283.83 1768.62,-283.83 1768.62,-287.79 1764.67,-291.75 1760.71,-291.75"/>
<text text-anchor="middle" x="1669.88" y="-274.45" font-family="Arial" font-size="14.00" fill="#cfffac">app/book&#45;list/booklist.model.ts</text>
</g>
<!-- app/book&#45;list/book&#45;list.component.ts&#45;&gt;app/book&#45;list/booklist.model.ts -->
<g id="edge6" class="edge">
<title>app/book&#45;list/book&#45;list.component.ts&#45;&gt;app/book&#45;list/booklist.model.ts</title>
<path fill="none" stroke="#757575" d="M1024.42,-252.23C1047.99,-255.56 1074,-258.81 1098,-260.88 1258.16,-274.64 1444.38,-278.59 1559.45,-279.64"/>
<polygon fill="#757575" stroke="#757575" points="1559.16,-283.13 1569.19,-279.72 1559.22,-276.13 1559.16,-283.13"/>
</g>
<!-- app/book&#45;list/books.actions.ts -->
<g id="node11" class="node">
<title>app/book&#45;list/books.actions.ts</title>
<path fill="none" stroke="#c6c5fe" d="M1342.33,-373.75C1342.33,-373.75 1165.17,-373.75 1165.17,-373.75 1161.21,-373.75 1157.25,-369.79 1157.25,-365.83 1157.25,-365.83 1157.25,-357.92 1157.25,-357.92 1157.25,-353.96 1161.21,-350 1165.17,-350 1165.17,-350 1342.33,-350 1342.33,-350 1346.29,-350 1350.25,-353.96 1350.25,-357.92 1350.25,-357.92 1350.25,-365.83 1350.25,-365.83 1350.25,-369.79 1346.29,-373.75 1342.33,-373.75"/>
<text text-anchor="middle" x="1253.75" y="-356.45" font-family="Arial" font-size="14.00" fill="#c6c5fe">app/book&#45;list/books.actions.ts</text>
</g>
<!-- app/book&#45;list/book&#45;list.component.ts&#45;&gt;app/book&#45;list/books.actions.ts -->
<g id="edge7" class="edge">
<title>app/book&#45;list/book&#45;list.component.ts&#45;&gt;app/book&#45;list/books.actions.ts</title>
<path fill="none" stroke="#757575" d="M960.37,-251.97C985.34,-273.81 1041.67,-319.53 1098,-340.88 1113.04,-346.57 1129.41,-350.76 1145.7,-353.83"/>
<polygon fill="#757575" stroke="#757575" points="1145,-357.26 1155.46,-355.52 1146.2,-350.36 1145,-357.26"/>
</g>
<!-- app/book&#45;list/books.selector.ts -->
<g id="node12" class="node">
<title>app/book&#45;list/books.selector.ts</title>
<path fill="none" stroke="#c6c5fe" d="M1344.21,-251.75C1344.21,-251.75 1163.29,-251.75 1163.29,-251.75 1159.33,-251.75 1155.38,-247.79 1155.38,-243.83 1155.38,-243.83 1155.38,-235.92 1155.38,-235.92 1155.38,-231.96 1159.33,-228 1163.29,-228 1163.29,-228 1344.21,-228 1344.21,-228 1348.17,-228 1352.12,-231.96 1352.12,-235.92 1352.12,-235.92 1352.12,-243.83 1352.12,-243.83 1352.12,-247.79 1348.17,-251.75 1344.21,-251.75"/>
<text text-anchor="middle" x="1253.75" y="-234.45" font-family="Arial" font-size="14.00" fill="#c6c5fe">app/book&#45;list/books.selector.ts</text>
</g>
<!-- app/book&#45;list/book&#45;list.component.ts&#45;&gt;app/book&#45;list/books.selector.ts -->
<g id="edge8" class="edge">
<title>app/book&#45;list/book&#45;list.component.ts&#45;&gt;app/book&#45;list/books.selector.ts</title>
<path fill="none" stroke="#757575" d="M1062.16,-239.88C1088.96,-239.88 1117.43,-239.88 1143.95,-239.88"/>
<polygon fill="#757575" stroke="#757575" points="1143.68,-243.38 1153.68,-239.88 1143.68,-236.38 1143.68,-243.38"/>
</g>
<!-- app/book&#45;list/collections/collections.component.ts -->
<g id="node13" class="node">
<title>app/book&#45;list/collections/collections.component.ts</title>
<path fill="none" stroke="#c6c5fe" d="M1401.58,-209.75C1401.58,-209.75 1105.92,-209.75 1105.92,-209.75 1101.96,-209.75 1098,-205.79 1098,-201.83 1098,-201.83 1098,-193.92 1098,-193.92 1098,-189.96 1101.96,-186 1105.92,-186 1105.92,-186 1401.58,-186 1401.58,-186 1405.54,-186 1409.5,-189.96 1409.5,-193.92 1409.5,-193.92 1409.5,-201.83 1409.5,-201.83 1409.5,-205.79 1405.54,-209.75 1401.58,-209.75"/>
<text text-anchor="middle" x="1253.75" y="-192.45" font-family="Arial" font-size="14.00" fill="#c6c5fe">app/book&#45;list/collections/collections.component.ts</text>
</g>
<!-- app/book&#45;list/book&#45;list.component.ts&#45;&gt;app/book&#45;list/collections/collections.component.ts -->
<g id="edge9" class="edge">
<title>app/book&#45;list/book&#45;list.component.ts&#45;&gt;app/book&#45;list/collections/collections.component.ts</title>
<path fill="none" stroke="#757575" d="M1035.62,-227.5C1056.1,-224.65 1077.81,-221.65 1098,-218.88 1114.86,-216.56 1132.75,-214.12 1150.15,-211.75"/>
<polygon fill="#757575" stroke="#757575" points="1150.57,-215.23 1160,-210.41 1149.62,-208.29 1150.57,-215.23"/>
</g>
<!-- app/book&#45;list/list/list.component.ts -->
<g id="node14" class="node">
<title>app/book&#45;list/list/list.component.ts</title>
<path fill="none" stroke="#c6c5fe" d="M1355.08,-167.75C1355.08,-167.75 1152.42,-167.75 1152.42,-167.75 1148.46,-167.75 1144.5,-163.79 1144.5,-159.83 1144.5,-159.83 1144.5,-151.92 1144.5,-151.92 1144.5,-147.96 1148.46,-144 1152.42,-144 1152.42,-144 1355.08,-144 1355.08,-144 1359.04,-144 1363,-147.96 1363,-151.92 1363,-151.92 1363,-159.83 1363,-159.83 1363,-163.79 1359.04,-167.75 1355.08,-167.75"/>
<text text-anchor="middle" x="1253.75" y="-150.45" font-family="Arial" font-size="14.00" fill="#c6c5fe">app/book&#45;list/list/list.component.ts</text>
</g>
<!-- app/book&#45;list/book&#45;list.component.ts&#45;&gt;app/book&#45;list/list/list.component.ts -->
<g id="edge10" class="edge">
<title>app/book&#45;list/book&#45;list.component.ts&#45;&gt;app/book&#45;list/list/list.component.ts</title>
<path fill="none" stroke="#757575" d="M970.9,-227.61C1000.1,-213.16 1051.4,-189.53 1098,-176.88 1109.32,-173.8 1121.23,-171.17 1133.21,-168.91"/>
<polygon fill="#757575" stroke="#757575" points="1133.5,-172.42 1142.73,-167.21 1132.27,-165.53 1133.5,-172.42"/>
</g>
<!-- app/app.config.ts -->
<g id="node3" class="node">
<title>app/app.config.ts</title>
<path fill="none" stroke="#c6c5fe" d="M612.08,-167.75C612.08,-167.75 509.17,-167.75 509.17,-167.75 505.21,-167.75 501.25,-163.79 501.25,-159.83 501.25,-159.83 501.25,-151.92 501.25,-151.92 501.25,-147.96 505.21,-144 509.17,-144 509.17,-144 612.08,-144 612.08,-144 616.04,-144 620,-147.96 620,-151.92 620,-151.92 620,-159.83 620,-159.83 620,-163.79 616.04,-167.75 612.08,-167.75"/>
<text text-anchor="middle" x="560.62" y="-150.45" font-family="Arial" font-size="14.00" fill="#c6c5fe">app/app.config.ts</text>
</g>
<!-- app/app.routes.ts -->
<g id="node4" class="node">
<title>app/app.routes.ts</title>
<path fill="none" stroke="#c6c5fe" d="M998.21,-167.75C998.21,-167.75 893.79,-167.75 893.79,-167.75 889.83,-167.75 885.88,-163.79 885.88,-159.83 885.88,-159.83 885.88,-151.92 885.88,-151.92 885.88,-147.96 889.83,-144 893.79,-144 893.79,-144 998.21,-144 998.21,-144 1002.17,-144 1006.12,-147.96 1006.12,-151.92 1006.12,-151.92 1006.12,-159.83 1006.12,-159.83 1006.12,-163.79 1002.17,-167.75 998.21,-167.75"/>
<text text-anchor="middle" x="946" y="-150.45" font-family="Arial" font-size="14.00" fill="#c6c5fe">app/app.routes.ts</text>
</g>
<!-- app/app.config.ts&#45;&gt;app/app.routes.ts -->
<g id="edge2" class="edge">
<title>app/app.config.ts&#45;&gt;app/app.routes.ts</title>
<path fill="none" stroke="#757575" d="M620.27,-155.88C688.46,-155.88 800.98,-155.88 874.04,-155.88"/>
<polygon fill="#757575" stroke="#757575" points="873.9,-159.38 883.9,-155.88 873.9,-152.38 873.9,-159.38"/>
</g>
<!-- app/base/core/core.provider.ts -->
<g id="node5" class="node">
<title>app/base/core/core.provider.ts</title>
<path fill="none" stroke="#cfffac" d="M1036.83,-125.75C1036.83,-125.75 855.17,-125.75 855.17,-125.75 851.21,-125.75 847.25,-121.79 847.25,-117.83 847.25,-117.83 847.25,-109.92 847.25,-109.92 847.25,-105.96 851.21,-102 855.17,-102 855.17,-102 1036.83,-102 1036.83,-102 1040.79,-102 1044.75,-105.96 1044.75,-109.92 1044.75,-109.92 1044.75,-117.83 1044.75,-117.83 1044.75,-121.79 1040.79,-125.75 1036.83,-125.75"/>
<text text-anchor="middle" x="946" y="-108.45" font-family="Arial" font-size="14.00" fill="#cfffac">app/base/core/core.provider.ts</text>
</g>
<!-- app/app.config.ts&#45;&gt;app/base/core/core.provider.ts -->
<g id="edge3" class="edge">
<title>app/app.config.ts&#45;&gt;app/base/core/core.provider.ts</title>
<path fill="none" stroke="#757575" d="M620.27,-149.45C677.41,-143.19 765.68,-133.52 835.77,-125.84"/>
<polygon fill="#757575" stroke="#757575" points="835.8,-129.36 845.36,-124.79 835.03,-122.4 835.8,-129.36"/>
</g>
<!-- app/pages/home/home.module.ts -->
<g id="node6" class="node">
<title>app/pages/home/home.module.ts</title>
<path fill="none" stroke="#c6c5fe" d="M1355.08,-125.75C1355.08,-125.75 1152.42,-125.75 1152.42,-125.75 1148.46,-125.75 1144.5,-121.79 1144.5,-117.83 1144.5,-117.83 1144.5,-109.92 1144.5,-109.92 1144.5,-105.96 1148.46,-102 1152.42,-102 1152.42,-102 1355.08,-102 1355.08,-102 1359.04,-102 1363,-105.96 1363,-109.92 1363,-109.92 1363,-117.83 1363,-117.83 1363,-121.79 1359.04,-125.75 1355.08,-125.75"/>
<text text-anchor="middle" x="1253.75" y="-108.45" font-family="Arial" font-size="14.00" fill="#c6c5fe">app/pages/home/home.module.ts</text>
</g>
<!-- app/app.routes.ts&#45;&gt;app/pages/home/home.module.ts -->
<g id="edge4" class="edge">
<title>app/app.routes.ts&#45;&gt;app/pages/home/home.module.ts</title>
<path fill="none" stroke="#757575" d="M1006.52,-147.55C1034.31,-143.68 1067.85,-139.02 1098,-134.88 1114.86,-132.56 1132.75,-130.12 1150.15,-127.75"/>
<polygon fill="#757575" stroke="#757575" points="1150.57,-131.23 1160,-126.41 1149.62,-124.29 1150.57,-131.23"/>
</g>
<!-- app/pages/home/contact/contact.component.ts -->
<g id="node17" class="node">
<title>app/pages/home/contact/contact.component.ts</title>
<path fill="none" stroke="#cfffac" d="M1810.58,-229.75C1810.58,-229.75 1529.17,-229.75 1529.17,-229.75 1525.21,-229.75 1521.25,-225.79 1521.25,-221.83 1521.25,-221.83 1521.25,-213.92 1521.25,-213.92 1521.25,-209.96 1525.21,-206 1529.17,-206 1529.17,-206 1810.58,-206 1810.58,-206 1814.54,-206 1818.5,-209.96 1818.5,-213.92 1818.5,-213.92 1818.5,-221.83 1818.5,-221.83 1818.5,-225.79 1814.54,-229.75 1810.58,-229.75"/>
<text text-anchor="middle" x="1669.88" y="-212.45" font-family="Arial" font-size="14.00" fill="#cfffac">app/pages/home/contact/contact.component.ts</text>
</g>
<!-- app/pages/home/home.module.ts&#45;&gt;app/pages/home/contact/contact.component.ts -->
<g id="edge19" class="edge">
<title>app/pages/home/home.module.ts&#45;&gt;app/pages/home/contact/contact.component.ts</title>
<path fill="none" stroke="#757575" d="M1363.4,-115.85C1379.77,-119.67 1395.76,-125.68 1409.5,-134.88 1435.98,-152.6 1418.66,-179.7 1445.5,-196.88 1464.74,-209.19 1486.89,-216.96 1509.61,-221.63"/>
<polygon fill="#757575" stroke="#757575" points="1508.84,-225.05 1519.31,-223.41 1510.1,-218.16 1508.84,-225.05"/>
</g>
<!-- app/pages/home/course/course.component.ts -->
<g id="node18" class="node">
<title>app/pages/home/course/course.component.ts</title>
<path fill="none" stroke="#cfffac" d="M1807.58,-187.75C1807.58,-187.75 1532.17,-187.75 1532.17,-187.75 1528.21,-187.75 1524.25,-183.79 1524.25,-179.83 1524.25,-179.83 1524.25,-171.92 1524.25,-171.92 1524.25,-167.96 1528.21,-164 1532.17,-164 1532.17,-164 1807.58,-164 1807.58,-164 1811.54,-164 1815.5,-167.96 1815.5,-171.92 1815.5,-171.92 1815.5,-179.83 1815.5,-179.83 1815.5,-183.79 1811.54,-187.75 1807.58,-187.75"/>
<text text-anchor="middle" x="1669.88" y="-170.45" font-family="Arial" font-size="14.00" fill="#cfffac">app/pages/home/course/course.component.ts</text>
</g>
<!-- app/pages/home/home.module.ts&#45;&gt;app/pages/home/course/course.component.ts -->
<g id="edge20" class="edge">
<title>app/pages/home/home.module.ts&#45;&gt;app/pages/home/course/course.component.ts</title>
<path fill="none" stroke="#757575" d="M1363.32,-123.38C1379.03,-126.25 1394.84,-130 1409.5,-134.88 1426.87,-140.65 1428.02,-149.46 1445.5,-154.88 1466.84,-161.49 1489.84,-166.19 1512.67,-169.51"/>
<polygon fill="#757575" stroke="#757575" points="1511.98,-172.95 1522.36,-170.82 1512.92,-166.01 1511.98,-172.95"/>
</g>
<!-- app/pages/home/general&#45;introduction/general&#45;introduction.component.ts -->
<g id="node19" class="node">
<title>app/pages/home/general&#45;introduction/general&#45;introduction.component.ts</title>
<path fill="none" stroke="#cfffac" d="M1886.33,-145.75C1886.33,-145.75 1453.42,-145.75 1453.42,-145.75 1449.46,-145.75 1445.5,-141.79 1445.5,-137.83 1445.5,-137.83 1445.5,-129.92 1445.5,-129.92 1445.5,-125.96 1449.46,-122 1453.42,-122 1453.42,-122 1886.33,-122 1886.33,-122 1890.29,-122 1894.25,-125.96 1894.25,-129.92 1894.25,-129.92 1894.25,-137.83 1894.25,-137.83 1894.25,-141.79 1890.29,-145.75 1886.33,-145.75"/>
<text text-anchor="middle" x="1669.88" y="-128.45" font-family="Arial" font-size="14.00" fill="#cfffac">app/pages/home/general&#45;introduction/general&#45;introduction.component.ts</text>
</g>
<!-- app/pages/home/home.module.ts&#45;&gt;app/pages/home/general&#45;introduction/general&#45;introduction.component.ts -->
<g id="edge21" class="edge">
<title>app/pages/home/home.module.ts&#45;&gt;app/pages/home/general&#45;introduction/general&#45;introduction.component.ts</title>
<path fill="none" stroke="#757575" d="M1363.29,-119.12C1385.31,-120.18 1409.28,-121.34 1433.79,-122.52"/>
<polygon fill="#757575" stroke="#757575" points="1433.41,-126.01 1443.56,-122.99 1433.75,-119.02 1433.41,-126.01"/>
</g>
<!-- app/pages/home/home.component.ts -->
<g id="node20" class="node">
<title>app/pages/home/home.component.ts</title>
<path fill="none" stroke="#cfffac" d="M2163.33,-85.75C2163.33,-85.75 1938.17,-85.75 1938.17,-85.75 1934.21,-85.75 1930.25,-81.79 1930.25,-77.83 1930.25,-77.83 1930.25,-69.92 1930.25,-69.92 1930.25,-65.96 1934.21,-62 1938.17,-62 1938.17,-62 2163.33,-62 2163.33,-62 2167.29,-62 2171.25,-65.96 2171.25,-69.92 2171.25,-69.92 2171.25,-77.83 2171.25,-77.83 2171.25,-81.79 2167.29,-85.75 2163.33,-85.75"/>
<text text-anchor="middle" x="2050.75" y="-68.45" font-family="Arial" font-size="14.00" fill="#cfffac">app/pages/home/home.component.ts</text>
</g>
<!-- app/pages/home/home.module.ts&#45;&gt;app/pages/home/home.component.ts -->
<g id="edge22" class="edge">
<title>app/pages/home/home.module.ts&#45;&gt;app/pages/home/home.component.ts</title>
<path fill="none" stroke="#757575" d="M1363.21,-108.42C1507.78,-101.14 1763.38,-88.28 1918.6,-80.47"/>
<polygon fill="#757575" stroke="#757575" points="1918.74,-83.97 1928.55,-79.97 1918.39,-76.98 1918.74,-83.97"/>
</g>
<!-- app/pages/home/home.routing.module.ts -->
<g id="node21" class="node">
<title>app/pages/home/home.routing.module.ts</title>
<path fill="none" stroke="#c6c5fe" d="M1793.71,-65.75C1793.71,-65.75 1546.04,-65.75 1546.04,-65.75 1542.08,-65.75 1538.12,-61.79 1538.12,-57.83 1538.12,-57.83 1538.12,-49.92 1538.12,-49.92 1538.12,-45.96 1542.08,-42 1546.04,-42 1546.04,-42 1793.71,-42 1793.71,-42 1797.67,-42 1801.62,-45.96 1801.62,-49.92 1801.62,-49.92 1801.62,-57.83 1801.62,-57.83 1801.62,-61.79 1797.67,-65.75 1793.71,-65.75"/>
<text text-anchor="middle" x="1669.88" y="-48.45" font-family="Arial" font-size="14.00" fill="#c6c5fe">app/pages/home/home.routing.module.ts</text>
</g>
<!-- app/pages/home/home.module.ts&#45;&gt;app/pages/home/home.routing.module.ts -->
<g id="edge23" class="edge">
<title>app/pages/home/home.module.ts&#45;&gt;app/pages/home/home.routing.module.ts</title>
<path fill="none" stroke="#757575" d="M1318.18,-101.58C1355.21,-94.64 1402.9,-86.14 1445.5,-79.88 1475.95,-75.39 1508.82,-71.21 1539.74,-67.56"/>
<polygon fill="#757575" stroke="#757575" points="1540,-71.05 1549.53,-66.42 1539.19,-64.1 1540,-71.05"/>
</g>
<!-- app/pages/home/review/review.component.ts -->
<g id="node22" class="node">
<title>app/pages/home/review/review.component.ts</title>
<path fill="none" stroke="#cfffac" d="M1805.71,-23.75C1805.71,-23.75 1534.04,-23.75 1534.04,-23.75 1530.08,-23.75 1526.12,-19.79 1526.12,-15.83 1526.12,-15.83 1526.12,-7.92 1526.12,-7.92 1526.12,-3.96 1530.08,0 1534.04,0 1534.04,0 1805.71,0 1805.71,0 1809.67,0 1813.62,-3.96 1813.62,-7.92 1813.62,-7.92 1813.62,-15.83 1813.62,-15.83 1813.62,-19.79 1809.67,-23.75 1805.71,-23.75"/>
<text text-anchor="middle" x="1669.88" y="-6.45" font-family="Arial" font-size="14.00" fill="#cfffac">app/pages/home/review/review.component.ts</text>
</g>
<!-- app/pages/home/home.module.ts&#45;&gt;app/pages/home/review/review.component.ts -->
<g id="edge24" class="edge">
<title>app/pages/home/home.module.ts&#45;&gt;app/pages/home/review/review.component.ts</title>
<path fill="none" stroke="#757575" d="M1277.44,-101.51C1312.39,-83.09 1382.02,-48.93 1445.5,-32.88 1467.49,-27.32 1491.03,-23.2 1514.28,-20.16"/>
<polygon fill="#757575" stroke="#757575" points="1514.66,-23.64 1524.16,-18.93 1513.8,-16.69 1514.66,-23.64"/>
</g>
<!-- app/base/utils/core&#45;helper.ts -->
<g id="node7" class="node">
<title>app/base/utils/core&#45;helper.ts</title>
<path fill="none" stroke="#cfffac" d="M645.08,-293.75C645.08,-293.75 476.17,-293.75 476.17,-293.75 472.21,-293.75 468.25,-289.79 468.25,-285.83 468.25,-285.83 468.25,-277.92 468.25,-277.92 468.25,-273.96 472.21,-270 476.17,-270 476.17,-270 645.08,-270 645.08,-270 649.04,-270 653,-273.96 653,-277.92 653,-277.92 653,-285.83 653,-285.83 653,-289.79 649.04,-293.75 645.08,-293.75"/>
<text text-anchor="middle" x="560.62" y="-276.45" font-family="Arial" font-size="14.00" fill="#cfffac">app/base/utils/core&#45;helper.ts</text>
</g>
<!-- app/base/utils/test&#45;helper.ts -->
<g id="node8" class="node">
<title>app/base/utils/test&#45;helper.ts</title>
<path fill="none" stroke="#cfffac" d="M227.83,-293.75C227.83,-293.75 63.42,-293.75 63.42,-293.75 59.46,-293.75 55.5,-289.79 55.5,-285.83 55.5,-285.83 55.5,-277.92 55.5,-277.92 55.5,-273.96 59.46,-270 63.42,-270 63.42,-270 227.83,-270 227.83,-270 231.79,-270 235.75,-273.96 235.75,-277.92 235.75,-277.92 235.75,-285.83 235.75,-285.83 235.75,-289.79 231.79,-293.75 227.83,-293.75"/>
<text text-anchor="middle" x="145.62" y="-276.45" font-family="Arial" font-size="14.00" fill="#cfffac">app/base/utils/test&#45;helper.ts</text>
</g>
<!-- app/book&#45;list/book&#45;list.service.ts&#45;&gt;app/book&#45;list/booklist.model.ts -->
<g id="edge11" class="edge">
<title>app/book&#45;list/book&#45;list.service.ts&#45;&gt;app/book&#45;list/booklist.model.ts</title>
<path fill="none" stroke="#757575" d="M1357.65,-309.94C1419.12,-304 1497.14,-296.46 1559.69,-290.42"/>
<polygon fill="#757575" stroke="#757575" points="1559.66,-293.94 1569.28,-289.5 1558.99,-286.97 1559.66,-293.94"/>
</g>
<!-- app/book&#45;list/books.actions.ts&#45;&gt;app/book&#45;list/booklist.model.ts -->
<g id="edge12" class="edge">
<title>app/book&#45;list/books.actions.ts&#45;&gt;app/book&#45;list/booklist.model.ts</title>
<path fill="none" stroke="#757575" d="M1350.74,-350.31C1370.24,-347.55 1390.57,-344.38 1409.5,-340.88 1479.63,-327.9 1559.38,-308.43 1611.71,-294.99"/>
<polygon fill="#757575" stroke="#757575" points="1612.5,-298.4 1621.31,-292.51 1610.75,-291.62 1612.5,-298.4"/>
</g>
<!-- app/book&#45;list/books.selector.ts&#45;&gt;app/book&#45;list/booklist.model.ts -->
<g id="edge15" class="edge">
<title>app/book&#45;list/books.selector.ts&#45;&gt;app/book&#45;list/booklist.model.ts</title>
<path fill="none" stroke="#757575" d="M1352.37,-249.3C1414.52,-255.31 1495.12,-263.09 1559.44,-269.3"/>
<polygon fill="#757575" stroke="#757575" points="1559.04,-272.78 1569.33,-270.26 1559.71,-265.81 1559.04,-272.78"/>
</g>
<!-- app/book&#45;list/collections/collections.component.ts&#45;&gt;app/book&#45;list/booklist.model.ts -->
<g id="edge17" class="edge">
<title>app/book&#45;list/collections/collections.component.ts&#45;&gt;app/book&#45;list/booklist.model.ts</title>
<path fill="none" stroke="#757575" d="M1377.37,-210.19C1388.36,-212.59 1399.21,-215.45 1409.5,-218.88 1426.87,-224.65 1428.27,-232.7 1445.5,-238.88 1481.66,-251.84 1522.64,-260.88 1559.55,-267.09"/>
<polygon fill="#757575" stroke="#757575" points="1558.94,-270.54 1569.37,-268.69 1560.06,-263.63 1558.94,-270.54"/>
</g>
<!-- app/book&#45;list/list/list.component.ts&#45;&gt;app/book&#45;list/booklist.model.ts -->
<g id="edge18" class="edge">
<title>app/book&#45;list/list/list.component.ts&#45;&gt;app/book&#45;list/booklist.model.ts</title>
<path fill="none" stroke="#757575" d="M1363.4,-157.85C1379.77,-161.67 1395.76,-167.68 1409.5,-176.88 1435.98,-194.6 1419.44,-220.54 1445.5,-238.88 1478.37,-262 1520.48,-273.21 1559.26,-278.33"/>
<polygon fill="#757575" stroke="#757575" points="1558.79,-281.8 1569.13,-279.49 1559.61,-274.85 1558.79,-281.8"/>
</g>
<!-- app/book&#45;list/books.reducer.ts -->
<g id="node15" class="node">
<title>app/book&#45;list/books.reducer.ts</title>
<path fill="none" stroke="#c6c5fe" d="M1035.71,-413.75C1035.71,-413.75 856.29,-413.75 856.29,-413.75 852.33,-413.75 848.38,-409.79 848.38,-405.83 848.38,-405.83 848.38,-397.92 848.38,-397.92 848.38,-393.96 852.33,-390 856.29,-390 856.29,-390 1035.71,-390 1035.71,-390 1039.67,-390 1043.62,-393.96 1043.62,-397.92 1043.62,-397.92 1043.62,-405.83 1043.62,-405.83 1043.62,-409.79 1039.67,-413.75 1035.71,-413.75"/>
<text text-anchor="middle" x="946" y="-396.45" font-family="Arial" font-size="14.00" fill="#c6c5fe">app/book&#45;list/books.reducer.ts</text>
</g>
<!-- app/book&#45;list/books.reducer.ts&#45;&gt;app/book&#45;list/booklist.model.ts -->
<g id="edge13" class="edge">
<title>app/book&#45;list/books.reducer.ts&#45;&gt;app/book&#45;list/booklist.model.ts</title>
<path fill="none" stroke="#757575" d="M1043.84,-407.26C1138.24,-410.33 1285.3,-409.29 1409.5,-382.88 1494.31,-364.84 1587.3,-321.68 1635.59,-297.34"/>
<polygon fill="#757575" stroke="#757575" points="1637.09,-300.51 1644.41,-292.85 1633.91,-294.27 1637.09,-300.51"/>
</g>
<!-- app/book&#45;list/books.reducer.ts&#45;&gt;app/book&#45;list/books.actions.ts -->
<g id="edge14" class="edge">
<title>app/book&#45;list/books.reducer.ts&#45;&gt;app/book&#45;list/books.actions.ts</title>
<path fill="none" stroke="#757575" d="M1041.23,-389.55C1074.8,-385.16 1112.81,-380.18 1147.26,-375.68"/>
<polygon fill="#757575" stroke="#757575" points="1147.34,-379.19 1156.8,-374.43 1146.43,-372.25 1147.34,-379.19"/>
</g>
<!-- app/book&#45;list/collection.reducer.ts -->
<g id="node16" class="node">
<title>app/book&#45;list/collection.reducer.ts</title>
<path fill="none" stroke="#c6c5fe" d="M1045.83,-371.75C1045.83,-371.75 846.17,-371.75 846.17,-371.75 842.21,-371.75 838.25,-367.79 838.25,-363.83 838.25,-363.83 838.25,-355.92 838.25,-355.92 838.25,-351.96 842.21,-348 846.17,-348 846.17,-348 1045.83,-348 1045.83,-348 1049.79,-348 1053.75,-351.96 1053.75,-355.92 1053.75,-355.92 1053.75,-363.83 1053.75,-363.83 1053.75,-367.79 1049.79,-371.75 1045.83,-371.75"/>
<text text-anchor="middle" x="946" y="-354.45" font-family="Arial" font-size="14.00" fill="#c6c5fe">app/book&#45;list/collection.reducer.ts</text>
</g>
<!-- app/book&#45;list/collection.reducer.ts&#45;&gt;app/book&#45;list/books.actions.ts -->
<g id="edge16" class="edge">
<title>app/book&#45;list/collection.reducer.ts&#45;&gt;app/book&#45;list/books.actions.ts</title>
<path fill="none" stroke="#757575" d="M1053.94,-360.57C1083.64,-360.77 1115.89,-360.98 1145.6,-361.17"/>
<polygon fill="#757575" stroke="#757575" points="1145.31,-364.67 1155.34,-361.24 1145.36,-357.67 1145.31,-364.67"/>
</g>
<!-- app/pages/home/home.routing.module.ts&#45;&gt;app/pages/home/home.component.ts -->
<g id="edge25" class="edge">
<title>app/pages/home/home.routing.module.ts&#45;&gt;app/pages/home/home.component.ts</title>
<path fill="none" stroke="#757575" d="M1802.06,-60.8C1839.81,-62.79 1880.98,-64.97 1918.73,-66.96"/>
<polygon fill="#757575" stroke="#757575" points="1918.11,-70.43 1928.28,-67.46 1918.48,-63.44 1918.11,-70.43"/>
</g>
<!-- app/patern/card/card.component.ts -->
<g id="node23" class="node">
<title>app/patern/card/card.component.ts</title>
<path fill="none" stroke="#c6c5fe" d="M250.71,-335.75C250.71,-335.75 40.54,-335.75 40.54,-335.75 36.58,-335.75 32.62,-331.79 32.62,-327.83 32.62,-327.83 32.62,-319.92 32.62,-319.92 32.62,-315.96 36.58,-312 40.54,-312 40.54,-312 250.71,-312 250.71,-312 254.67,-312 258.62,-315.96 258.62,-319.92 258.62,-319.92 258.62,-327.83 258.62,-327.83 258.62,-331.79 254.67,-335.75 250.71,-335.75"/>
<text text-anchor="middle" x="145.62" y="-318.45" font-family="Arial" font-size="14.00" fill="#c6c5fe">app/patern/card/card.component.ts</text>
</g>
<!-- app/patern/card/card.type.ts -->
<g id="node24" class="node">
<title>app/patern/card/card.type.ts</title>
<path fill="none" stroke="#cfffac" d="M644.71,-377.75C644.71,-377.75 476.54,-377.75 476.54,-377.75 472.58,-377.75 468.62,-373.79 468.62,-369.83 468.62,-369.83 468.62,-361.92 468.62,-361.92 468.62,-357.96 472.58,-354 476.54,-354 476.54,-354 644.71,-354 644.71,-354 648.67,-354 652.62,-357.96 652.62,-361.92 652.62,-361.92 652.62,-369.83 652.62,-369.83 652.62,-373.79 648.67,-377.75 644.71,-377.75"/>
<text text-anchor="middle" x="560.62" y="-360.45" font-family="Arial" font-size="14.00" fill="#cfffac">app/patern/card/card.type.ts</text>
</g>
<!-- app/patern/card/card.component.ts&#45;&gt;app/patern/card/card.type.ts -->
<g id="edge26" class="edge">
<title>app/patern/card/card.component.ts&#45;&gt;app/patern/card/card.type.ts</title>
<path fill="none" stroke="#757575" d="M248.79,-336.21C274.39,-339.18 301.81,-342.25 327.25,-344.88 369.7,-349.26 416.56,-353.59 457.02,-357.17"/>
<polygon fill="#757575" stroke="#757575" points="456.47,-360.64 466.74,-358.03 457.08,-353.66 456.47,-360.64"/>
</g>
<!-- app/shared/ui/avatar/avatar.component.ts -->
<g id="node25" class="node">
<title>app/shared/ui/avatar/avatar.component.ts</title>
<path fill="none" stroke="#cfffac" d="M685.21,-335.75C685.21,-335.75 436.04,-335.75 436.04,-335.75 432.08,-335.75 428.12,-331.79 428.12,-327.83 428.12,-327.83 428.12,-319.92 428.12,-319.92 428.12,-315.96 432.08,-312 436.04,-312 436.04,-312 685.21,-312 685.21,-312 689.17,-312 693.12,-315.96 693.12,-319.92 693.12,-319.92 693.12,-327.83 693.12,-327.83 693.12,-331.79 689.17,-335.75 685.21,-335.75"/>
<text text-anchor="middle" x="560.62" y="-318.45" font-family="Arial" font-size="14.00" fill="#cfffac">app/shared/ui/avatar/avatar.component.ts</text>
</g>
<!-- app/patern/card/card.component.ts&#45;&gt;app/shared/ui/avatar/avatar.component.ts -->
<g id="edge27" class="edge">
<title>app/patern/card/card.component.ts&#45;&gt;app/shared/ui/avatar/avatar.component.ts</title>
<path fill="none" stroke="#757575" d="M258.93,-323.88C307.56,-323.88 365.05,-323.88 416.67,-323.88"/>
<polygon fill="#757575" stroke="#757575" points="416.42,-327.38 426.42,-323.88 416.42,-320.38 416.42,-327.38"/>
</g>
<!-- app/patern/footer/footer.component.ts -->
<g id="node26" class="node">
<title>app/patern/footer/footer.component.ts</title>
<path fill="none" stroke="#cfffac" d="M258.58,-398.75C258.58,-398.75 32.67,-398.75 32.67,-398.75 28.71,-398.75 24.75,-394.79 24.75,-390.83 24.75,-390.83 24.75,-382.92 24.75,-382.92 24.75,-378.96 28.71,-375 32.67,-375 32.67,-375 258.58,-375 258.58,-375 262.54,-375 266.5,-378.96 266.5,-382.92 266.5,-382.92 266.5,-390.83 266.5,-390.83 266.5,-394.79 262.54,-398.75 258.58,-398.75"/>
<text text-anchor="middle" x="145.62" y="-381.45" font-family="Arial" font-size="14.00" fill="#cfffac">app/patern/footer/footer.component.ts</text>
</g>
<!-- app/patern/header/desktop&#45;tablet&#45;menu/desktop&#45;tablet&#45;menu.component.ts -->
<g id="node27" class="node">
<title>app/patern/header/desktop&#45;tablet&#45;menu/desktop&#45;tablet&#45;menu.component.ts</title>
<path fill="none" stroke="#cfffac" d="M786.08,-461.75C786.08,-461.75 335.17,-461.75 335.17,-461.75 331.21,-461.75 327.25,-457.79 327.25,-453.83 327.25,-453.83 327.25,-445.92 327.25,-445.92 327.25,-441.96 331.21,-438 335.17,-438 335.17,-438 786.08,-438 786.08,-438 790.04,-438 794,-441.96 794,-445.92 794,-445.92 794,-453.83 794,-453.83 794,-457.79 790.04,-461.75 786.08,-461.75"/>
<text text-anchor="middle" x="560.62" y="-444.45" font-family="Arial" font-size="14.00" fill="#cfffac">app/patern/header/desktop&#45;tablet&#45;menu/desktop&#45;tablet&#45;menu.component.ts</text>
</g>
<!-- app/patern/header/header.component.ts -->
<g id="node28" class="node">
<title>app/patern/header/header.component.ts</title>
<path fill="none" stroke="#c6c5fe" d="M266.08,-440.75C266.08,-440.75 25.17,-440.75 25.17,-440.75 21.21,-440.75 17.25,-436.79 17.25,-432.83 17.25,-432.83 17.25,-424.92 17.25,-424.92 17.25,-420.96 21.21,-417 25.17,-417 25.17,-417 266.08,-417 266.08,-417 270.04,-417 274,-420.96 274,-424.92 274,-424.92 274,-432.83 274,-432.83 274,-436.79 270.04,-440.75 266.08,-440.75"/>
<text text-anchor="middle" x="145.62" y="-423.45" font-family="Arial" font-size="14.00" fill="#c6c5fe">app/patern/header/header.component.ts</text>
</g>
<!-- app/patern/header/header.component.ts&#45;&gt;app/patern/header/desktop&#45;tablet&#45;menu/desktop&#45;tablet&#45;menu.component.ts -->
<g id="edge28" class="edge">
<title>app/patern/header/header.component.ts&#45;&gt;app/patern/header/desktop&#45;tablet&#45;menu/desktop&#45;tablet&#45;menu.component.ts</title>
<path fill="none" stroke="#757575" d="M274.47,-435.38C287.74,-436.05 301.53,-436.75 315.55,-437.46"/>
<polygon fill="#757575" stroke="#757575" points="315.16,-440.95 325.33,-437.96 315.52,-433.96 315.16,-440.95"/>
</g>
<!-- app/patern/header/mobile&#45;menu/mobile&#45;menu.component.ts -->
<g id="node29" class="node">
<title>app/patern/header/mobile&#45;menu/mobile&#45;menu.component.ts</title>
<path fill="none" stroke="#cfffac" d="M741.83,-419.75C741.83,-419.75 379.42,-419.75 379.42,-419.75 375.46,-419.75 371.5,-415.79 371.5,-411.83 371.5,-411.83 371.5,-403.92 371.5,-403.92 371.5,-399.96 375.46,-396 379.42,-396 379.42,-396 741.83,-396 741.83,-396 745.79,-396 749.75,-399.96 749.75,-403.92 749.75,-403.92 749.75,-411.83 749.75,-411.83 749.75,-415.79 745.79,-419.75 741.83,-419.75"/>
<text text-anchor="middle" x="560.62" y="-402.45" font-family="Arial" font-size="14.00" fill="#cfffac">app/patern/header/mobile&#45;menu/mobile&#45;menu.component.ts</text>
</g>
<!-- app/patern/header/header.component.ts&#45;&gt;app/patern/header/mobile&#45;menu/mobile&#45;menu.component.ts -->
<g id="edge29" class="edge">
<title>app/patern/header/header.component.ts&#45;&gt;app/patern/header/mobile&#45;menu/mobile&#45;menu.component.ts</title>
<path fill="none" stroke="#757575" d="M274.47,-422.37C301.68,-420.99 331.02,-419.5 360.18,-418.02"/>
<polygon fill="#757575" stroke="#757575" points="360.02,-421.53 369.83,-417.53 359.66,-414.54 360.02,-421.53"/>
</g>
<!-- app/shared/constant/endpoint.const.ts -->
<g id="node30" class="node">
<title>app/shared/constant/endpoint.const.ts</title>
<path fill="none" stroke="#cfffac" d="M259.71,-482.75C259.71,-482.75 31.54,-482.75 31.54,-482.75 27.58,-482.75 23.63,-478.79 23.63,-474.83 23.63,-474.83 23.63,-466.92 23.63,-466.92 23.63,-462.96 27.58,-459 31.54,-459 31.54,-459 259.71,-459 259.71,-459 263.67,-459 267.62,-462.96 267.62,-466.92 267.62,-466.92 267.62,-474.83 267.62,-474.83 267.62,-478.79 263.67,-482.75 259.71,-482.75"/>
<text text-anchor="middle" x="145.62" y="-465.45" font-family="Arial" font-size="14.00" fill="#cfffac">app/shared/constant/endpoint.const.ts</text>
</g>
<!-- app/shared/mock/httpResponse.interface.ts -->
<g id="node31" class="node">
<title>app/shared/mock/httpResponse.interface.ts</title>
<path fill="none" stroke="#cfffac" d="M691.21,-545.75C691.21,-545.75 430.04,-545.75 430.04,-545.75 426.08,-545.75 422.12,-541.79 422.12,-537.83 422.12,-537.83 422.12,-529.92 422.12,-529.92 422.12,-525.96 426.08,-522 430.04,-522 430.04,-522 691.21,-522 691.21,-522 695.17,-522 699.12,-525.96 699.12,-529.92 699.12,-529.92 699.12,-537.83 699.12,-537.83 699.12,-541.79 695.17,-545.75 691.21,-545.75"/>
<text text-anchor="middle" x="560.62" y="-528.45" font-family="Arial" font-size="14.00" fill="#cfffac">app/shared/mock/httpResponse.interface.ts</text>
</g>
<!-- app/shared/mock/mock.service.ts -->
<g id="node32" class="node">
<title>app/shared/mock/mock.service.ts</title>
<path fill="none" stroke="#c6c5fe" d="M246.58,-566.75C246.58,-566.75 44.67,-566.75 44.67,-566.75 40.71,-566.75 36.75,-562.79 36.75,-558.83 36.75,-558.83 36.75,-550.92 36.75,-550.92 36.75,-546.96 40.71,-543 44.67,-543 44.67,-543 246.58,-543 246.58,-543 250.54,-543 254.5,-546.96 254.5,-550.92 254.5,-550.92 254.5,-558.83 254.5,-558.83 254.5,-562.79 250.54,-566.75 246.58,-566.75"/>
<text text-anchor="middle" x="145.62" y="-549.45" font-family="Arial" font-size="14.00" fill="#c6c5fe">app/shared/mock/mock.service.ts</text>
</g>
<!-- app/shared/mock/mock.service.ts&#45;&gt;app/shared/mock/httpResponse.interface.ts -->
<g id="edge30" class="edge">
<title>app/shared/mock/mock.service.ts&#45;&gt;app/shared/mock/httpResponse.interface.ts</title>
<path fill="none" stroke="#757575" d="M254.87,-549.37C302.4,-546.95 359,-544.08 410.44,-541.46"/>
<polygon fill="#757575" stroke="#757575" points="410.36,-544.97 420.17,-540.97 410,-537.98 410.36,-544.97"/>
</g>
<!-- app/shared/services/home.service.ts -->
<g id="node33" class="node">
<title>app/shared/services/home.service.ts</title>
<path fill="none" stroke="#c6c5fe" d="M255.58,-524.75C255.58,-524.75 35.67,-524.75 35.67,-524.75 31.71,-524.75 27.75,-520.79 27.75,-516.83 27.75,-516.83 27.75,-508.92 27.75,-508.92 27.75,-504.96 31.71,-501 35.67,-501 35.67,-501 255.58,-501 255.58,-501 259.54,-501 263.5,-504.96 263.5,-508.92 263.5,-508.92 263.5,-516.83 263.5,-516.83 263.5,-520.79 259.54,-524.75 255.58,-524.75"/>
<text text-anchor="middle" x="145.62" y="-507.45" font-family="Arial" font-size="14.00" fill="#c6c5fe">app/shared/services/home.service.ts</text>
</g>
<!-- app/shared/services/home.service.ts&#45;&gt;app/shared/mock/httpResponse.interface.ts -->
<g id="edge31" class="edge">
<title>app/shared/services/home.service.ts&#45;&gt;app/shared/mock/httpResponse.interface.ts</title>
<path fill="none" stroke="#757575" d="M263.87,-518.84C309.56,-521.16 362.46,-523.85 410.79,-526.31"/>
<polygon fill="#757575" stroke="#757575" points="410.31,-529.79 420.48,-526.8 410.67,-522.8 410.31,-529.79"/>
</g>
<!-- app/shared/store/review.store.ts -->
<g id="node34" class="node">
<title>app/shared/store/review.store.ts</title>
<path fill="none" stroke="#cfffac" d="M241.33,-608.75C241.33,-608.75 49.92,-608.75 49.92,-608.75 45.96,-608.75 42,-604.79 42,-600.83 42,-600.83 42,-592.92 42,-592.92 42,-588.96 45.96,-585 49.92,-585 49.92,-585 241.33,-585 241.33,-585 245.29,-585 249.25,-588.96 249.25,-592.92 249.25,-592.92 249.25,-600.83 249.25,-600.83 249.25,-604.79 245.29,-608.75 241.33,-608.75"/>
<text text-anchor="middle" x="145.62" y="-591.45" font-family="Arial" font-size="14.00" fill="#cfffac">app/shared/store/review.store.ts</text>
</g>
<!-- app/shared/ui/button/button.component.ts -->
<g id="node35" class="node">
<title>app/shared/ui/button/button.component.ts</title>
<path fill="none" stroke="#c6c5fe" d="M270.58,-650.75C270.58,-650.75 20.67,-650.75 20.67,-650.75 16.71,-650.75 12.75,-646.79 12.75,-642.83 12.75,-642.83 12.75,-634.92 12.75,-634.92 12.75,-630.96 16.71,-627 20.67,-627 20.67,-627 270.58,-627 270.58,-627 274.54,-627 278.5,-630.96 278.5,-634.92 278.5,-634.92 278.5,-642.83 278.5,-642.83 278.5,-646.79 274.54,-650.75 270.58,-650.75"/>
<text text-anchor="middle" x="145.62" y="-633.45" font-family="Arial" font-size="14.00" fill="#c6c5fe">app/shared/ui/button/button.component.ts</text>
</g>
<!-- app/shared/ui/button/button.type.ts -->
<g id="node36" class="node">
<title>app/shared/ui/button/button.type.ts</title>
<path fill="none" stroke="#cfffac" d="M664.58,-650.75C664.58,-650.75 456.67,-650.75 456.67,-650.75 452.71,-650.75 448.75,-646.79 448.75,-642.83 448.75,-642.83 448.75,-634.92 448.75,-634.92 448.75,-630.96 452.71,-627 456.67,-627 456.67,-627 664.58,-627 664.58,-627 668.54,-627 672.5,-630.96 672.5,-634.92 672.5,-634.92 672.5,-642.83 672.5,-642.83 672.5,-646.79 668.54,-650.75 664.58,-650.75"/>
<text text-anchor="middle" x="560.62" y="-633.45" font-family="Arial" font-size="14.00" fill="#cfffac">app/shared/ui/button/button.type.ts</text>
</g>
<!-- app/shared/ui/button/button.component.ts&#45;&gt;app/shared/ui/button/button.type.ts -->
<g id="edge32" class="edge">
<title>app/shared/ui/button/button.component.ts&#45;&gt;app/shared/ui/button/button.type.ts</title>
<path fill="none" stroke="#757575" d="M278.72,-638.88C329.41,-638.88 387,-638.88 436.78,-638.88"/>
<polygon fill="#757575" stroke="#757575" points="436.75,-642.38 446.75,-638.88 436.75,-635.38 436.75,-642.38"/>
</g>
<!-- app/shared/ui/icon/icon.component.ts -->
<g id="node37" class="node">
<title>app/shared/ui/icon/icon.component.ts</title>
<path fill="none" stroke="#cfffac" d="M257.83,-713.75C257.83,-713.75 33.42,-713.75 33.42,-713.75 29.46,-713.75 25.5,-709.79 25.5,-705.83 25.5,-705.83 25.5,-697.92 25.5,-697.92 25.5,-693.96 29.46,-690 33.42,-690 33.42,-690 257.83,-690 257.83,-690 261.79,-690 265.75,-693.96 265.75,-697.92 265.75,-697.92 265.75,-705.83 265.75,-705.83 265.75,-709.79 261.79,-713.75 257.83,-713.75"/>
<text text-anchor="middle" x="145.62" y="-696.45" font-family="Arial" font-size="14.00" fill="#cfffac">app/shared/ui/icon/icon.component.ts</text>
</g>
<!-- app/shared/ui/icon/icons.ts -->
<g id="node38" class="node">
<title>app/shared/ui/icon/icons.ts</title>
<path fill="none" stroke="#c6c5fe" d="M225.58,-776.75C225.58,-776.75 65.67,-776.75 65.67,-776.75 61.71,-776.75 57.75,-772.79 57.75,-768.83 57.75,-768.83 57.75,-760.92 57.75,-760.92 57.75,-756.96 61.71,-753 65.67,-753 65.67,-753 225.58,-753 225.58,-753 229.54,-753 233.5,-756.96 233.5,-760.92 233.5,-760.92 233.5,-768.83 233.5,-768.83 233.5,-772.79 229.54,-776.75 225.58,-776.75"/>
<text text-anchor="middle" x="145.62" y="-759.45" font-family="Arial" font-size="14.00" fill="#c6c5fe">app/shared/ui/icon/icons.ts</text>
</g>
<!-- app/shared/ui/icon/svg/android&#45;store.ts -->
<g id="node39" class="node">
<title>app/shared/ui/icon/svg/android&#45;store.ts</title>
<path fill="none" stroke="#cfffac" d="M676.96,-860.75C676.96,-860.75 444.29,-860.75 444.29,-860.75 440.33,-860.75 436.38,-856.79 436.38,-852.83 436.38,-852.83 436.38,-844.92 436.38,-844.92 436.38,-840.96 440.33,-837 444.29,-837 444.29,-837 676.96,-837 676.96,-837 680.92,-837 684.88,-840.96 684.88,-844.92 684.88,-844.92 684.88,-852.83 684.88,-852.83 684.88,-856.79 680.92,-860.75 676.96,-860.75"/>
<text text-anchor="middle" x="560.62" y="-843.45" font-family="Arial" font-size="14.00" fill="#cfffac">app/shared/ui/icon/svg/android&#45;store.ts</text>
</g>
<!-- app/shared/ui/icon/icons.ts&#45;&gt;app/shared/ui/icon/svg/android&#45;store.ts -->
<g id="edge33" class="edge">
<title>app/shared/ui/icon/icons.ts&#45;&gt;app/shared/ui/icon/svg/android&#45;store.ts</title>
<path fill="none" stroke="#757575" d="M233.63,-767.31C253.46,-770.58 273.8,-776.27 291.25,-785.88 312.79,-797.73 305.4,-816.61 327.25,-827.88 356.85,-843.14 391.4,-850.76 424.67,-854.08"/>
<polygon fill="#757575" stroke="#757575" points="424.12,-857.55 434.38,-854.92 424.72,-850.58 424.12,-857.55"/>
</g>
<!-- app/shared/ui/icon/svg/app&#45;store.ts -->
<g id="node40" class="node">
<title>app/shared/ui/icon/svg/app&#45;store.ts</title>
<path fill="none" stroke="#cfffac" d="M665.71,-818.75C665.71,-818.75 455.54,-818.75 455.54,-818.75 451.58,-818.75 447.62,-814.79 447.62,-810.83 447.62,-810.83 447.62,-802.92 447.62,-802.92 447.62,-798.96 451.58,-795 455.54,-795 455.54,-795 665.71,-795 665.71,-795 669.67,-795 673.62,-798.96 673.62,-802.92 673.62,-802.92 673.62,-810.83 673.62,-810.83 673.62,-814.79 669.67,-818.75 665.71,-818.75"/>
<text text-anchor="middle" x="560.62" y="-801.45" font-family="Arial" font-size="14.00" fill="#cfffac">app/shared/ui/icon/svg/app&#45;store.ts</text>
</g>
<!-- app/shared/ui/icon/icons.ts&#45;&gt;app/shared/ui/icon/svg/app&#45;store.ts -->
<g id="edge34" class="edge">
<title>app/shared/ui/icon/icons.ts&#45;&gt;app/shared/ui/icon/svg/app&#45;store.ts</title>
<path fill="none" stroke="#757575" d="M233.85,-775.47C263.48,-778.95 296.79,-782.73 327.25,-785.88 362.52,-789.52 400.83,-793.12 435.99,-796.29"/>
<polygon fill="#757575" stroke="#757575" points="435.5,-799.76 445.78,-797.17 436.13,-792.79 435.5,-799.76"/>
</g>
<!-- app/shared/ui/icon/svg/edit.ts -->
<g id="node41" class="node">
<title>app/shared/ui/icon/svg/edit.ts</title>
<path fill="none" stroke="#cfffac" d="M648.08,-776.75C648.08,-776.75 473.17,-776.75 473.17,-776.75 469.21,-776.75 465.25,-772.79 465.25,-768.83 465.25,-768.83 465.25,-760.92 465.25,-760.92 465.25,-756.96 469.21,-753 473.17,-753 473.17,-753 648.08,-753 648.08,-753 652.04,-753 656,-756.96 656,-760.92 656,-760.92 656,-768.83 656,-768.83 656,-772.79 652.04,-776.75 648.08,-776.75"/>
<text text-anchor="middle" x="560.62" y="-759.45" font-family="Arial" font-size="14.00" fill="#cfffac">app/shared/ui/icon/svg/edit.ts</text>
</g>
<!-- app/shared/ui/icon/icons.ts&#45;&gt;app/shared/ui/icon/svg/edit.ts -->
<g id="edge35" class="edge">
<title>app/shared/ui/icon/icons.ts&#45;&gt;app/shared/ui/icon/svg/edit.ts</title>
<path fill="none" stroke="#757575" d="M233.96,-764.88C298.09,-764.88 385.54,-764.88 453.67,-764.88"/>
<polygon fill="#757575" stroke="#757575" points="453.34,-768.38 463.34,-764.88 453.34,-761.38 453.34,-768.38"/>
</g>
<!-- app/shared/ui/icon/svg/logo.ts -->
<g id="node42" class="node">
<title>app/shared/ui/icon/svg/logo.ts</title>
<path fill="none" stroke="#cfffac" d="M649.96,-734.75C649.96,-734.75 471.29,-734.75 471.29,-734.75 467.33,-734.75 463.38,-730.79 463.38,-726.83 463.38,-726.83 463.38,-718.92 463.38,-718.92 463.38,-714.96 467.33,-711 471.29,-711 471.29,-711 649.96,-711 649.96,-711 653.92,-711 657.88,-714.96 657.88,-718.92 657.88,-718.92 657.88,-726.83 657.88,-726.83 657.88,-730.79 653.92,-734.75 649.96,-734.75"/>
<text text-anchor="middle" x="560.62" y="-717.45" font-family="Arial" font-size="14.00" fill="#cfffac">app/shared/ui/icon/svg/logo.ts</text>
</g>
<!-- app/shared/ui/icon/icons.ts&#45;&gt;app/shared/ui/icon/svg/logo.ts -->
<g id="edge36" class="edge">
<title>app/shared/ui/icon/icons.ts&#45;&gt;app/shared/ui/icon/svg/logo.ts</title>
<path fill="none" stroke="#757575" d="M233.85,-754.28C263.48,-750.8 296.79,-747.02 327.25,-743.88 367.77,-739.69 412.32,-735.55 451.48,-732.07"/>
<polygon fill="#757575" stroke="#757575" points="451.75,-735.56 461.4,-731.19 451.13,-728.59 451.75,-735.56"/>
</g>
<!-- app/shared/ui/icon/svg/start.ts -->
<g id="node43" class="node">
<title>app/shared/ui/icon/svg/start.ts</title>
<path fill="none" stroke="#cfffac" d="M650.33,-692.75C650.33,-692.75 470.92,-692.75 470.92,-692.75 466.96,-692.75 463,-688.79 463,-684.83 463,-684.83 463,-676.92 463,-676.92 463,-672.96 466.96,-669 470.92,-669 470.92,-669 650.33,-669 650.33,-669 654.29,-669 658.25,-672.96 658.25,-676.92 658.25,-676.92 658.25,-684.83 658.25,-684.83 658.25,-688.79 654.29,-692.75 650.33,-692.75"/>
<text text-anchor="middle" x="560.62" y="-675.45" font-family="Arial" font-size="14.00" fill="#cfffac">app/shared/ui/icon/svg/start.ts</text>
</g>
<!-- app/shared/ui/icon/icons.ts&#45;&gt;app/shared/ui/icon/svg/start.ts -->
<g id="edge37" class="edge">
<title>app/shared/ui/icon/icons.ts&#45;&gt;app/shared/ui/icon/svg/start.ts</title>
<path fill="none" stroke="#757575" d="M200.61,-752.56C228.28,-745.42 262.18,-735.35 291.25,-722.88 308.27,-715.57 309.6,-707.51 327.25,-701.88 366.58,-689.32 411.43,-683.43 451.17,-680.89"/>
<polygon fill="#757575" stroke="#757575" points="451.21,-684.39 460.99,-680.33 450.81,-677.41 451.21,-684.39"/>
</g>
<!-- app/shared/ui/icon/svg/close.ts -->
<g id="node44" class="node">
<title>app/shared/ui/icon/svg/close.ts</title>
<path fill="none" stroke="#cfffac" d="M237.96,-818.75C237.96,-818.75 53.29,-818.75 53.29,-818.75 49.33,-818.75 45.38,-814.79 45.38,-810.83 45.38,-810.83 45.38,-802.92 45.38,-802.92 45.38,-798.96 49.33,-795 53.29,-795 53.29,-795 237.96,-795 237.96,-795 241.92,-795 245.88,-798.96 245.88,-802.92 245.88,-802.92 245.88,-810.83 245.88,-810.83 245.88,-814.79 241.92,-818.75 237.96,-818.75"/>
<text text-anchor="middle" x="145.62" y="-801.45" font-family="Arial" font-size="14.00" fill="#cfffac">app/shared/ui/icon/svg/close.ts</text>
</g>
<!-- app/shared/ui/icon/svg/menu&#45;incollapse.ts -->
<g id="node45" class="node">
<title>app/shared/ui/icon/svg/menu&#45;incollapse.ts</title>
<path fill="none" stroke="#cfffac" d="M271.71,-860.75C271.71,-860.75 19.54,-860.75 19.54,-860.75 15.58,-860.75 11.62,-856.79 11.62,-852.83 11.62,-852.83 11.62,-844.92 11.62,-844.92 11.62,-840.96 15.58,-837 19.54,-837 19.54,-837 271.71,-837 271.71,-837 275.67,-837 279.62,-840.96 279.62,-844.92 279.62,-844.92 279.62,-852.83 279.62,-852.83 279.62,-856.79 275.67,-860.75 271.71,-860.75"/>
<text text-anchor="middle" x="145.62" y="-843.45" font-family="Arial" font-size="14.00" fill="#cfffac">app/shared/ui/icon/svg/menu&#45;incollapse.ts</text>
</g>
<!-- app/shared/ui/shared.module.ts -->
<g id="node46" class="node">
<title>app/shared/ui/shared.module.ts</title>
<path fill="none" stroke="#cfffac" d="M240.58,-902.75C240.58,-902.75 50.67,-902.75 50.67,-902.75 46.71,-902.75 42.75,-898.79 42.75,-894.83 42.75,-894.83 42.75,-886.92 42.75,-886.92 42.75,-882.96 46.71,-879 50.67,-879 50.67,-879 240.58,-879 240.58,-879 244.54,-879 248.5,-882.96 248.5,-886.92 248.5,-886.92 248.5,-894.83 248.5,-894.83 248.5,-898.79 244.54,-902.75 240.58,-902.75"/>
<text text-anchor="middle" x="145.62" y="-885.45" font-family="Arial" font-size="14.00" fill="#cfffac">app/shared/ui/shared.module.ts</text>
</g>
<!-- app/shared/ui/skeleton/skeleton.component.ts -->
<g id="node47" class="node">
<title>app/shared/ui/skeleton/skeleton.component.ts</title>
<path fill="none" stroke="#c6c5fe" d="M283.33,-251.75C283.33,-251.75 7.92,-251.75 7.92,-251.75 3.96,-251.75 0,-247.79 0,-243.83 0,-243.83 0,-235.92 0,-235.92 0,-231.96 3.96,-228 7.92,-228 7.92,-228 283.33,-228 283.33,-228 287.29,-228 291.25,-231.96 291.25,-235.92 291.25,-235.92 291.25,-243.83 291.25,-243.83 291.25,-247.79 287.29,-251.75 283.33,-251.75"/>
<text text-anchor="middle" x="145.62" y="-234.45" font-family="Arial" font-size="14.00" fill="#c6c5fe">app/shared/ui/skeleton/skeleton.component.ts</text>
</g>
<!-- app/shared/ui/skeleton/skeleton.component.ts&#45;&gt;app/base/utils/core&#45;helper.ts -->
<g id="edge38" class="edge">
<title>app/shared/ui/skeleton/skeleton.component.ts&#45;&gt;app/base/utils/core&#45;helper.ts</title>
<path fill="none" stroke="#757575" d="M248.79,-252.21C274.39,-255.18 301.81,-258.25 327.25,-260.88 369.6,-265.25 416.36,-269.57 456.75,-273.15"/>
<polygon fill="#757575" stroke="#757575" points="456.19,-276.61 466.46,-274 456.81,-269.64 456.19,-276.61"/>
</g>
<!-- app/shared/ui/skeleton/skeleton.type.ts -->
<g id="node48" class="node">
<title>app/shared/ui/skeleton/skeleton.type.ts</title>
<path fill="none" stroke="#cfffac" d="M677.33,-251.75C677.33,-251.75 443.92,-251.75 443.92,-251.75 439.96,-251.75 436,-247.79 436,-243.83 436,-243.83 436,-235.92 436,-235.92 436,-231.96 439.96,-228 443.92,-228 443.92,-228 677.33,-228 677.33,-228 681.29,-228 685.25,-231.96 685.25,-235.92 685.25,-235.92 685.25,-243.83 685.25,-243.83 685.25,-247.79 681.29,-251.75 677.33,-251.75"/>
<text text-anchor="middle" x="560.62" y="-234.45" font-family="Arial" font-size="14.00" fill="#cfffac">app/shared/ui/skeleton/skeleton.type.ts</text>
</g>
<!-- app/shared/ui/skeleton/skeleton.component.ts&#45;&gt;app/shared/ui/skeleton/skeleton.type.ts -->
<g id="edge39" class="edge">
<title>app/shared/ui/skeleton/skeleton.component.ts&#45;&gt;app/shared/ui/skeleton/skeleton.type.ts</title>
<path fill="none" stroke="#757575" d="M291.65,-239.88C334.75,-239.88 381.78,-239.88 424.24,-239.88"/>
<polygon fill="#757575" stroke="#757575" points="423.99,-243.38 433.99,-239.88 423.99,-236.38 423.99,-243.38"/>
</g>
<!-- main.ts -->
<g id="node49" class="node">
<title>main.ts</title>
<path fill="none" stroke="#c6c5fe" d="M167.83,-188.75C167.83,-188.75 123.42,-188.75 123.42,-188.75 119.46,-188.75 115.5,-184.79 115.5,-180.83 115.5,-180.83 115.5,-172.92 115.5,-172.92 115.5,-168.96 119.46,-165 123.42,-165 123.42,-165 167.83,-165 167.83,-165 171.79,-165 175.75,-168.96 175.75,-172.92 175.75,-172.92 175.75,-180.83 175.75,-180.83 175.75,-184.79 171.79,-188.75 167.83,-188.75"/>
<text text-anchor="middle" x="145.62" y="-171.45" font-family="Arial" font-size="14.00" fill="#c6c5fe">main.ts</text>
</g>
<!-- main.ts&#45;&gt;app/app.component.ts -->
<g id="edge40" class="edge">
<title>main.ts&#45;&gt;app/app.component.ts</title>
<path fill="none" stroke="#757575" d="M176,-178.37C237.29,-181.49 380.86,-188.79 473.93,-193.52"/>
<polygon fill="#757575" stroke="#757575" points="473.63,-197.01 483.79,-194.02 473.98,-190.02 473.63,-197.01"/>
</g>
<!-- main.ts&#45;&gt;app/app.config.ts -->
<g id="edge41" class="edge">
<title>main.ts&#45;&gt;app/app.config.ts</title>
<path fill="none" stroke="#757575" d="M176,-175.38C240.85,-172.08 397.82,-164.1 489.61,-159.44"/>
<polygon fill="#757575" stroke="#757575" points="489.7,-162.94 499.51,-158.93 489.34,-155.94 489.7,-162.94"/>
</g>
</g>
</svg>
